<?xml version="1.0" standalone="no"?><!-- Generator: Gravit.io --><svg xmlns="http://www.w3.org/2000/svg" xmlns:xlink="http://www.w3.org/1999/xlink" style="isolation:isolate" viewBox="0 0 509 509" width="509" height="509"><defs><clipPath id="_clipPath_YPYWDnQJJmAhyWS2n5W4WzBjSLxfQGCb"><rect width="509" height="509"/></clipPath></defs><g clip-path="url(#_clipPath_YPYWDnQJJmAhyWS2n5W4WzBjSLxfQGCb)"><rect width="509" height="509" style="fill:rgb(136,108,96)"/><path d=" M 0 254.5 C 0 114.038 114.038 0 254.5 0 C 394.963 0 509.001 114.038 509.001 254.5 C 509.001 394.963 394.963 509.001 254.5 509.001 C 114.038 509.001 0 394.963 0 254.5 Z " fill="rgb(136,108,96)"/><path d=" M 334.138 475.451 L 254.5 410.047 L 174.863 475.451 L 174.863 248.739 L 334.138 248.739 L 334.138 475.451 Z " fill="rgb(248,181,23)"/><path d=" M 110.815 177.235 C 110.815 97.933 175.198 33.549 254.5 33.549 C 333.803 33.549 398.186 97.933 398.186 177.235 C 398.186 256.538 333.803 320.921 254.5 320.921 C 175.198 320.921 110.815 256.538 110.815 177.235 Z " fill="rgb(251,211,3)"/><path d=" M 160.969 177.235 C 160.969 125.614 202.879 83.704 254.5 83.704 C 306.122 83.704 348.032 125.614 348.032 177.235 C 348.032 228.856 306.122 270.766 254.5 270.766 C 202.879 270.766 160.969 228.856 160.969 177.235 Z " fill="rgb(248,181,23)"/><path d=" M 254.5 89.465 L 274.155 150.124 L 338.204 150.124 L 286.356 187.74 L 306.349 248.739 L 254.5 211.123 L 202.652 248.739 L 222.645 187.74 L 170.797 150.124 L 234.845 150.124 L 254.5 89.465 Z " fill="rgb(252,252,253)"/></g></svg>