<?xml version="1.0" standalone="no"?><!-- Generator: Gravit.io --><svg xmlns="http://www.w3.org/2000/svg" xmlns:xlink="http://www.w3.org/1999/xlink" style="isolation:isolate" viewBox="0 0 509 509" width="509" height="509"><defs><clipPath id="_clipPath_VlkYJ2drS6yOCYi3Px7Eco5JMjzNQCl3"><rect width="509" height="509"/></clipPath></defs><g clip-path="url(#_clipPath_VlkYJ2drS6yOCYi3Px7Eco5JMjzNQCl3)"><rect width="509" height="509" style="fill:rgb(251,211,3)"/><path d=" M 0 254.5 C 0 114.038 114.038 0 254.5 0 C 394.963 0 509.001 114.038 509.001 254.5 C 509.001 394.963 394.963 509.001 254.5 509.001 C 114.038 509.001 0 394.963 0 254.5 Z " fill="rgb(251,211,3)"/><path d=" M 254.5 367.348 C 351.082 367.348 437.158 323.633 494.089 254.5 C 437.158 185.707 351.081 141.653 254.5 141.653 C 157.92 141.653 71.842 185.707 14.911 254.5 C 71.842 323.293 157.919 367.348 254.5 367.348 Z " fill="rgb(252,252,253)"/><path d=" M 148.43 254.5 C 148.43 195.959 195.959 148.43 254.5 148.43 C 313.042 148.43 360.571 195.959 360.571 254.5 C 360.571 313.042 313.042 360.571 254.5 360.571 C 195.959 360.571 148.43 313.042 148.43 254.5 Z " fill="rgb(110,177,225)"/><path d=" M 190.452 254.5 C 190.452 219.151 219.151 190.452 254.5 190.452 C 289.85 190.452 318.549 219.151 318.549 254.5 C 318.549 289.85 289.85 318.549 254.5 318.549 C 219.151 318.549 190.452 289.85 190.452 254.5 Z " fill="rgb(100,107,121)"/><g id="Group"><path d=" M 230.101 228.067 C 230.101 214.601 241.034 203.668 254.5 203.668 C 267.967 203.668 278.9 214.601 278.9 228.067 C 278.9 241.534 267.967 252.467 254.5 252.467 C 241.034 252.467 230.101 241.534 230.101 228.067 Z " fill="rgb(252,252,253)"/><path d=" M 254.5 318.548 C 274.833 318.548 293.133 309.06 304.655 294.149 C 297.878 272.799 277.883 257.211 254.5 257.211 C 231.118 257.211 210.785 272.799 204.346 294.149 C 215.867 309.06 234.167 318.548 254.5 318.548 Z " fill="rgb(252,252,253)"/></g></g></svg>