<?xml version="1.0" standalone="no"?><!-- Generator: Gravit.io --><svg xmlns="http://www.w3.org/2000/svg" xmlns:xlink="http://www.w3.org/1999/xlink" style="isolation:isolate" viewBox="0 0 505 505" width="505" height="505"><defs><clipPath id="_clipPath_cij33otbviYh42JhQOmv1DiFNQvalGOE"><rect width="505" height="505"/></clipPath></defs><g clip-path="url(#_clipPath_cij33otbviYh42JhQOmv1DiFNQvalGOE)"><rect width="505" height="505" style="fill:rgb(255,208,91)"/><path d=" M 0 252.5 C 0 113.141 113.141 0 252.5 0 C 391.859 0 505 113.141 505 252.5 C 505 391.859 391.859 505 252.5 505 C 113.141 505 0 391.859 0 252.5 Z " fill="rgb(255,208,91)"/><path d=" M 339.3 402.9 L 165.7 402.9 L 78.8 252.5 L 165.6 102.1 L 339.3 102.1 L 426.2 252.5 L 339.3 402.9 L 339.3 402.9 Z  M 172.5 391.1 L 332.5 391.1 L 412.5 252.5 L 332.5 113.9 L 172.5 113.9 L 92.5 252.5 L 172.5 391.1 L 172.5 391.1 Z " fill="rgb(255,255,255)"/><rect x="85.7" y="246.6" width="333.6" height="11.8" transform="matrix(1,0,0,1,0,0)" fill="rgb(255,255,255)"/><g id="Group"><rect x="90.593" y="245.351" width="333.591" height="11.8" transform="matrix(0.533,-0.846,0.846,0.533,-92.389,335.103)" fill="rgb(255,255,255)"/></g><rect x="246.617" y="85.703" width="11.8" height="333.588" transform="matrix(-0.876,-0.483,0.483,-0.876,351.667,595.556)" fill="rgb(255,255,255)"/><path d=" M 300.8 109.5 C 300.8 90.79 315.99 75.6 334.7 75.6 C 353.41 75.6 368.6 90.79 368.6 109.5 C 368.6 128.21 353.41 143.4 334.7 143.4 C 315.99 143.4 300.8 128.21 300.8 109.5 Z " fill="rgb(50,74,94)"/><g id="Group"><path d=" M 136.6 109.5 C 136.6 90.79 151.79 75.6 170.5 75.6 C 189.21 75.6 204.4 90.79 204.4 109.5 C 204.4 128.21 189.21 143.4 170.5 143.4 C 151.79 143.4 136.6 128.21 136.6 109.5 Z " fill="rgb(84,192,235)"/><path d=" M 300.8 393.7 C 300.8 374.99 315.99 359.8 334.7 359.8 C 353.41 359.8 368.6 374.99 368.6 393.7 C 368.6 412.41 353.41 427.6 334.7 427.6 C 315.99 427.6 300.8 412.41 300.8 393.7 Z " fill="rgb(84,192,235)"/></g><path d=" M 136.6 393.7 C 136.6 374.99 151.79 359.8 170.5 359.8 C 189.21 359.8 204.4 374.99 204.4 393.7 C 204.4 412.41 189.21 427.6 170.5 427.6 C 151.79 427.6 136.6 412.41 136.6 393.7 Z " fill="rgb(50,74,94)"/><path d=" M 385.4 252.5 C 385.4 233.79 400.59 218.6 419.3 218.6 C 438.01 218.6 453.2 233.79 453.2 252.5 C 453.2 271.21 438.01 286.4 419.3 286.4 C 400.59 286.4 385.4 271.21 385.4 252.5 Z " fill="rgb(255,112,88)"/><path d=" M 218.6 252.5 C 218.6 233.79 233.79 218.6 252.5 218.6 C 271.21 218.6 286.4 233.79 286.4 252.5 C 286.4 271.21 271.21 286.4 252.5 286.4 C 233.79 286.4 218.6 271.21 218.6 252.5 Z " fill="rgb(172,179,186)"/><path d=" M 51.8 252.5 C 51.8 233.79 66.99 218.6 85.7 218.6 C 104.41 218.6 119.6 233.79 119.6 252.5 C 119.6 271.21 104.41 286.4 85.7 286.4 C 66.99 286.4 51.8 271.21 51.8 252.5 Z " fill="rgb(255,112,88)"/></g></svg>