<?xml version="1.0" standalone="no"?><!-- Generator: Gravit.io --><svg xmlns="http://www.w3.org/2000/svg" xmlns:xlink="http://www.w3.org/1999/xlink" style="isolation:isolate" viewBox="0 0 473 473" width="473" height="473"><defs><clipPath id="_clipPath_nLHcibPhb5riJ4sugGNn5y0X3rMs6TSo"><rect width="473" height="473"/></clipPath></defs><g clip-path="url(#_clipPath_nLHcibPhb5riJ4sugGNn5y0X3rMs6TSo)"><rect width="473" height="473" style="fill:rgb(232,72,73)"/><path d=" M 0 236.5 C 0 105.972 105.972 0 236.5 0 C 367.029 0 473.001 105.972 473.001 236.5 C 473.001 367.029 367.029 473.001 236.5 473.001 C 105.972 473.001 0 367.029 0 236.5 Z " fill="rgb(232,72,73)"/><path d=" M 408.462 333.244 L 246.191 71.712 C 244.302 68.661 240.971 66.809 237.386 66.809 C 233.797 66.809 230.466 68.665 228.576 71.712 L 65.867 333.961 C 63.884 337.157 63.783 341.179 65.617 344.466 C 67.443 347.753 70.916 349.792 74.673 349.792 L 400.104 349.792 L 400.149 349.792 C 405.874 349.792 410.512 345.15 410.512 339.429 C 410.505 337.108 409.747 334.973 408.462 333.244 Z " fill="rgb(237,201,44)"/><path d=" M 225.375 241.635 L 222.011 191.295 C 221.38 181.485 221.07 174.442 221.07 170.17 C 221.07 164.356 222.594 159.818 225.637 156.562 C 228.684 153.294 232.702 151.669 237.673 151.669 C 243.7 151.669 247.733 153.753 249.761 157.921 C 251.789 162.093 252.808 168.105 252.808 175.944 C 252.808 180.571 252.562 185.272 252.077 190.026 L 247.555 241.841 C 247.066 248.01 246.016 252.738 244.399 256.035 C 242.786 259.325 240.119 260.968 236.411 260.968 C 232.624 260.968 229.998 259.381 228.531 256.189 C 227.056 253.006 226.003 248.152 225.375 241.635 Z  M 237.041 310.789 C 232.766 310.789 229.031 309.411 225.849 306.644 C 222.661 303.881 221.07 300.008 221.07 295.034 C 221.07 290.688 222.594 286.99 225.637 283.939 C 228.684 280.892 232.419 279.368 236.833 279.368 C 241.25 279.368 245.008 280.888 248.13 283.939 C 251.247 286.986 252.808 290.687 252.808 295.034 C 252.808 299.938 251.233 303.788 248.073 306.593 C 244.921 309.388 241.246 310.789 237.041 310.789 Z " fill="rgb(0,0,0)"/></g></svg>