<?xml version="1.0" standalone="no"?><!-- Generator: Gravit.io --><svg xmlns="http://www.w3.org/2000/svg" xmlns:xlink="http://www.w3.org/1999/xlink" style="isolation:isolate" viewBox="0 0 473 473" width="473" height="473"><defs><clipPath id="_clipPath_vX2o5d6tNsvs5UkGfH13GDvHjsrzX0bD"><rect width="473" height="473"/></clipPath></defs><g clip-path="url(#_clipPath_vX2o5d6tNsvs5UkGfH13GDvHjsrzX0bD)"><rect width="473" height="473" style="fill:rgb(227,170,36)"/><path d=" M 0 236.5 C 0 105.972 105.972 0 236.5 0 C 367.029 0 473.001 105.972 473.001 236.5 C 473.001 367.029 367.029 473.001 236.5 473.001 C 105.972 473.001 0 367.029 0 236.5 Z " fill="rgb(227,170,36)"/><path d=" M 185.775 168.47 C 204.369 120.121 200.788 47.042 200.788 47.042 C 200.788 47.042 250.231 67.761 284.367 124.651 C 316.453 178.123 286.141 257.787 286.141 257.787 C 309.779 234.14 318.541 210.498 319.343 182.109 C 345.899 224.498 366.416 273.076 366.416 322.231 C 366.416 383.049 311.113 432.299 242.822 432.332 C 174.56 432.295 119.228 383.049 119.228 322.231 C 119.228 263.037 163.85 225.487 185.775 168.47 Z " fill="rgb(225,122,45)"/><g id="Group" style="opacity:0.8;"><g opacity="0.8"><path d=" M 210.042 272.048 C 220.243 242.721 218.283 198.401 218.283 198.401 C 218.283 198.401 316.211 272.929 309.235 365.3 C 306.45 402.084 278.871 432.057 241.359 432.079 C 203.877 432.057 173.49 402.188 173.49 365.3 C 173.494 329.401 197.998 306.628 210.042 272.048 Z " fill="rgb(244,224,40)"/></g></g><g id="Group" style="opacity:0.8;"><g opacity="0.8"><path d=" M 221.581 329.424 C 228.049 310.841 226.802 282.762 226.802 282.762 C 226.802 282.762 288.848 329.987 284.431 388.517 C 282.665 411.82 265.191 430.806 241.426 430.824 C 217.679 430.805 198.42 411.883 198.42 388.517 C 198.424 365.763 213.959 351.333 221.581 329.424 Z " fill="rgb(255,255,255)"/></g></g></g></svg>