<?xml version="1.0" standalone="no"?><!-- Generator: Gravit.io --><svg xmlns="http://www.w3.org/2000/svg" xmlns:xlink="http://www.w3.org/1999/xlink" style="isolation:isolate" viewBox="0 0 473 473" width="473" height="473"><defs><clipPath id="_clipPath_asMTS92hpJh8P359Pb8yJuGczUZNbcPd"><rect width="473" height="473"/></clipPath></defs><g clip-path="url(#_clipPath_asMTS92hpJh8P359Pb8yJuGczUZNbcPd)"><rect width="473" height="473" style="fill:rgb(52,78,93)"/><path d=" M 0 236.5 C 0 105.972 105.972 0 236.5 0 C 367.027 0 472.999 105.972 472.999 236.5 C 472.999 367.027 367.027 472.999 236.5 472.999 C 105.972 472.999 0 367.027 0 236.5 Z " fill="rgb(52,78,93)"/><g id="Group"><path d=" M 70.255 127.754 C 70.255 114.811 83.759 104.303 100.392 104.303 C 117.024 104.303 130.528 114.811 130.528 127.754 C 130.528 140.698 117.024 151.206 100.392 151.206 C 83.759 151.206 70.255 140.698 70.255 127.754 Z " fill="rgb(249,238,209)"/><path d=" M 102.027 102.681 C 102.027 86.048 112.534 72.545 125.476 72.545 C 138.418 72.545 148.925 86.048 148.925 102.681 C 148.925 119.314 138.418 132.817 125.476 132.817 C 112.534 132.817 102.027 119.314 102.027 102.681 Z " fill="rgb(249,238,209)"/><path d=" M 97.857 125.233 L 348.476 375.853 C 355.187 382.568 379.513 358.245 372.795 351.531 L 122.174 100.908 C 115.464 94.197 91.138 118.519 97.857 125.233 Z " fill="rgb(249,238,209)"/><path d=" M 322.5 373.329 C 322.5 356.696 333.01 343.193 345.955 343.193 C 358.901 343.193 369.411 356.696 369.411 373.329 C 369.411 389.962 358.901 403.465 345.955 403.465 C 333.01 403.465 322.5 389.962 322.5 373.329 Z " fill="rgb(249,238,209)"/><path d=" M 340.861 348.237 C 340.861 335.274 354.369 324.781 371.021 324.773 C 387.68 324.78 401.172 335.278 401.172 348.237 C 401.172 361.184 387.68 371.677 371.021 371.685 C 354.369 371.689 340.861 361.184 340.861 348.237 Z " fill="rgb(249,238,209)"/><path d=" M 102.027 373.329 C 102.027 356.696 112.534 343.193 125.476 343.193 C 138.418 343.193 148.925 356.696 148.925 373.329 C 148.925 389.962 138.418 403.465 125.476 403.465 C 112.534 403.465 102.027 389.962 102.027 373.329 Z " fill="rgb(249,238,209)"/><path d=" M 70.255 348.234 C 70.255 335.292 83.759 324.785 100.392 324.785 C 117.024 324.785 130.528 335.292 130.528 348.234 C 130.528 361.175 117.024 371.682 100.392 371.682 C 83.759 371.682 70.255 361.175 70.255 348.234 Z " fill="rgb(249,238,209)"/><path d=" M 122.94 375.846 L 373.56 125.233 C 380.27 118.516 355.951 94.19 349.234 100.908 L 98.614 351.527 C 91.903 358.245 116.222 382.571 122.94 375.846 Z " fill="rgb(249,238,209)"/><path d=" M 340.861 127.761 C 340.869 140.724 354.369 151.217 371.028 151.217 C 387.68 151.217 401.179 140.72 401.172 127.761 C 401.172 114.814 387.68 104.321 371.028 104.313 C 354.369 104.321 340.869 114.807 340.861 127.761 Z " fill="rgb(249,238,209)"/><path d=" M 345.948 132.84 C 332.986 132.84 322.493 119.333 322.485 102.681 C 322.492 86.022 332.99 72.53 345.948 72.53 C 358.896 72.53 369.389 86.022 369.397 102.681 C 369.396 119.329 358.892 132.84 345.948 132.84 Z " fill="rgb(249,238,209)"/></g><path d=" M 336.997 200.949 C 336.997 149.422 292.11 107.502 236.949 107.502 C 181.781 107.502 136.9 149.425 136.9 200.949 C 136.9 220.871 143.51 239.846 156.032 255.893 C 150.515 271.122 149.634 282.075 153.399 288.461 C 155.318 291.713 158.455 293.782 161.887 294.211 C 166.854 295.843 187.452 303.081 194.073 307.408 L 194.073 317.891 C 194.073 320.628 195.519 323.608 213.022 327.264 L 213.597 327.316 C 214.034 327.316 214.444 327.256 214.806 327.14 C 215.251 327.518 215.833 327.831 216.614 327.981 C 223.127 329.16 229.609 329.882 234.913 330.009 L 234.958 330.009 C 235.57 330.009 236.13 329.889 236.627 329.654 C 237.139 329.886 237.706 330.002 238.341 330.002 C 244.54 329.841 252.446 328.855 260.012 327.305 C 260.844 327.14 261.442 326.823 261.886 326.405 C 262.275 326.51 262.551 326.51 263.201 326.554 L 263.843 326.473 C 276.828 323.433 279.364 321.024 279.364 317.895 L 279.364 306.478 C 284.591 303.562 295.007 299.349 308.955 294.525 C 309.116 294.469 309.284 294.413 309.452 294.342 C 313.44 293.737 316.454 291.784 318.397 288.543 C 322.052 282.448 321.396 272.066 316.443 257.667 C 329.894 241.265 336.997 221.675 336.997 200.949 Z " fill="rgb(52,78,93)"/><g id="Group"><path d=" M 144.816 202.33 C 144.816 154.967 186.099 116.514 236.948 116.514 C 287.797 116.514 329.079 154.967 329.079 202.33 C 329.079 249.693 287.797 288.146 236.948 288.146 C 186.099 288.146 144.816 249.693 144.816 202.33 Z " fill="rgb(249,238,209)"/><path d=" M 305.661 247.774 L 235.962 250.023 L 166.27 247.774 C 166.27 247.774 148.606 285.637 166.27 288.158 C 166.27 288.158 192.777 296.998 199.084 302.043 L 227.406 302.043 L 244.518 302.043 L 272.847 302.043 C 279.154 296.998 305.661 288.158 305.661 288.158 C 323.329 285.637 305.661 247.774 305.661 247.774 Z " fill="rgb(249,238,209)"/><path d=" M 273.329 314.206 C 273.329 315.423 268.202 317.298 261.245 318.93 C 261.047 318.978 259.217 313.784 258.963 313.716 C 258.65 313.637 257.906 319.665 257.709 319.706 C 251.259 321.028 243.843 322.055 237.569 322.215 C 237.009 322.23 236.446 317.584 235.9 317.584 C 235.418 317.584 234.929 322.23 234.425 322.222 C 229.167 322.099 223.121 321.356 217.519 320.34 C 217.045 320.25 216.679 314.204 216.205 314.111 C 215.652 314.003 214.147 319.683 213.994 319.645 C 205.547 317.875 198.881 315.608 198.881 314.204 L 198.881 286.076 C 198.881 283.511 202.103 281.435 206.089 281.435 L 266.123 281.435 C 270.104 281.435 273.331 283.515 273.331 286.076 L 273.329 314.206 L 273.329 314.206 Z " fill="rgb(249,238,209)"/><path d=" M 284.095 322.223 C 284.095 334.375 282.112 346.926 272.381 357.001 C 265.599 363.787 249.354 368.637 236.522 368.637 C 223.643 368.637 206.684 363.088 200.549 356.952 C 190.892 346.91 188.956 334.415 188.956 322.219 C 188.956 314.844 200.649 342.881 236.517 342.881 C 272.386 342.881 284.095 314.848 284.095 322.223 Z " fill="rgb(249,238,209)"/></g><g id="Group"><path d=" M 221.596 235.995 C 221.596 246.456 211.05 250.933 198.036 250.933 C 185.021 250.933 174.475 246.456 174.475 235.995 C 174.475 230.424 185.021 217.07 198.036 217.07 C 211.05 217.07 221.596 226.637 221.596 235.995 Z " fill="rgb(52,78,93)"/><path d=" M 252.725 235.995 C 252.725 246.456 263.272 250.933 276.278 250.933 C 289.288 250.933 299.845 246.456 299.845 235.995 C 299.845 230.424 289.292 217.07 276.278 217.07 C 263.272 217.066 252.725 226.637 252.725 235.995 Z " fill="rgb(52,78,93)"/><path d=" M 237.475 235.783 C 237.475 235.783 223.594 252.509 223.594 275.539 C 223.594 275.539 239.211 262.761 252.622 276.17 C 252.622 276.17 250.407 248.722 237.475 235.783 Z " fill="rgb(52,78,93)"/></g></g></svg>