<?xml version="1.0" standalone="no"?><!-- Generator: Gravit.io --><svg xmlns="http://www.w3.org/2000/svg" xmlns:xlink="http://www.w3.org/1999/xlink" style="isolation:isolate" viewBox="0 0 473 473" width="473" height="473"><defs><clipPath id="_clipPath_jbGWrajWw4HM0uLXzAYKq1keQ5TmAcs1"><rect width="473" height="473"/></clipPath></defs><g clip-path="url(#_clipPath_jbGWrajWw4HM0uLXzAYKq1keQ5TmAcs1)"><rect width="473" height="473" style="fill:rgb(52,78,93)"/><path d=" M 0 236.5 C 0 105.972 105.972 0 236.5 0 C 367.027 0 472.999 105.972 472.999 236.5 C 472.999 367.027 367.027 472.999 236.5 472.999 C 105.972 472.999 0 367.027 0 236.5 Z " fill="rgb(52,78,93)"/><path d=" M 276.85 320.405 C 276.85 312.596 272.476 306.263 267.08 306.263 L 236.095 306.263 L 236.095 472.989 C 236.226 472.989 236.357 473 236.488 473 C 243.65 473 250.726 472.623 257.729 472.003 L 257.729 346.328 C 257.731 346.328 276.85 328.217 276.85 320.405 Z " fill="rgb(224,228,224)"/><path d=" M 236.096 306.263 L 205.097 306.263 C 199.708 306.263 195.335 312.596 195.335 320.405 C 195.335 328.217 214.462 346.325 214.462 346.325 L 214.462 471.943 C 221.587 472.604 228.799 472.977 236.095 472.989 L 236.096 306.263 L 236.096 306.263 Z " fill="rgb(221,221,220)"/><g id="Group"><path d=" M 138.531 118.19 C 135.924 118.19 133.807 120.304 133.807 122.914 L 133.807 269.896 C 136.899 271.749 140.055 273.507 143.252 275.192 L 143.252 122.91 C 143.256 120.304 141.138 118.19 138.531 118.19 Z " fill="rgb(229,242,230)"/><path d=" M 333.658 118.19 C 331.052 118.19 328.938 120.304 328.938 122.914 L 328.938 275.816 C 332.13 274.131 335.282 272.373 338.375 270.524 L 338.375 122.91 C 338.378 120.304 336.261 118.19 333.658 118.19 Z " fill="rgb(229,242,230)"/><path d=" M 236.096 118.19 C 233.489 118.19 231.373 120.304 231.373 122.914 L 231.373 286.395 C 232.957 286.432 234.528 286.515 236.119 286.515 C 237.695 286.515 239.249 286.433 240.817 286.395 L 240.817 122.91 C 240.817 120.304 238.699 118.19 236.096 118.19 Z " fill="rgb(229,242,230)"/></g><rect x="79.423" y="146.09" width="309.209" height="168.309" transform="matrix(1,0,0,1,0,0)" fill="rgb(162,212,222)"/><path d=" M 219.247 236.694 C 283.605 233.176 343.501 236.209 387.706 247.199 L 387.706 243.857 C 348.476 233.218 295.529 228.173 237.216 228.173 C 174.71 228.173 118.369 233.969 78.485 246.24 L 78.485 259.292 C 113.604 247.262 163.138 239.764 219.247 236.694 Z " fill="rgb(105,198,212)"/><path d=" M 237.221 244.865 C 295.534 244.865 348.48 249.914 387.711 260.549 L 387.711 247.198 C 343.506 236.212 283.61 233.176 219.252 236.693 C 163.143 239.763 113.609 247.261 78.495 259.29 L 78.495 262.928 C 118.373 250.658 174.715 244.865 237.221 244.865 Z " fill="rgb(112,191,200)"/><path d=" M 78.49 262.928 L 78.49 265.535 C 121.899 253.947 181.702 250.175 246.482 252.939 C 302.214 255.318 351.804 262.115 387.706 273.508 L 387.706 260.55 C 348.476 249.911 295.529 244.866 237.216 244.866 C 174.715 244.865 118.373 250.658 78.49 262.928 Z " fill="rgb(243,237,115)"/><path d=" M 221.969 266.719 C 284.237 262.304 342.889 264.168 387.71 273.755 L 387.71 273.508 C 351.807 262.115 302.215 255.318 246.486 252.939 C 181.701 250.175 121.902 253.951 78.494 265.535 L 78.494 290.466 C 86.855 288.262 95.799 286.294 105.296 284.587 C 136.959 275.853 177.205 269.896 221.969 266.719 Z " fill="rgb(243,234,131)"/><path d=" M 387.71 294.263 L 387.71 273.754 C 342.889 264.172 284.237 262.307 221.969 266.718 C 177.205 269.895 136.959 275.852 105.292 284.583 C 140.526 278.25 183.001 275.3 228.695 275.453 C 291.553 275.666 348.054 281.72 387.71 294.263 Z " fill="rgb(231,221,127)"/><g id="Group"><path d=" M 105.292 284.584 C 95.796 286.291 86.851 288.259 78.49 290.463 L 78.49 293.503 C 86.53 290.268 95.485 287.291 105.292 284.584 Z " fill="rgb(243,237,115)"/><path d=" M 228.695 275.453 C 183 275.301 140.525 278.251 105.292 284.584 C 95.485 287.292 86.534 290.264 78.49 293.506 L 78.49 314.856 L 387.71 314.856 L 387.71 294.264 C 348.054 281.72 291.553 275.666 228.695 275.453 Z " fill="rgb(243,237,115)"/></g><path d=" M 392.374 322.032 L 75.692 322.032 C 72.6 322.032 70.09 319.523 70.09 316.43 L 70.09 144.061 C 70.09 140.969 72.599 138.459 75.692 138.459 L 392.374 138.459 C 395.466 138.459 397.976 140.968 397.976 144.061 L 397.976 316.427 C 397.975 319.523 395.466 322.032 392.374 322.032 Z  M 81.294 310.83 L 386.772 310.83 L 386.772 149.664 L 81.294 149.664 L 81.294 310.83 Z " fill="rgb(194,196,193)"/><path d=" M 317.208 267.839 C 316.685 267.839 316.207 267.495 316.058 266.972 L 309.654 244.681 C 309.471 244.047 309.841 243.382 310.475 243.202 C 311.11 243.023 311.775 243.385 311.954 244.02 L 318.355 266.314 C 318.537 266.948 318.172 267.609 317.537 267.793 C 317.429 267.825 317.313 267.839 317.208 267.839 Z " fill="rgb(153,107,57)"/><path d=" M 282.893 287.254 C 282.661 287.254 282.437 287.19 282.235 287.057 C 281.682 286.694 281.529 285.955 281.892 285.402 L 330.301 211.722 C 330.667 211.17 331.41 211.017 331.956 211.379 C 332.509 211.745 332.661 212.481 332.303 213.034 L 283.89 286.713 C 283.661 287.064 283.281 287.254 282.893 287.254 Z " fill="rgb(227,176,113)"/><g id="Group"><path d=" M 350.721 276.884 C 350.213 276.884 349.739 276.555 349.578 276.043 L 329.879 213.055 C 329.681 212.42 330.032 211.747 330.663 211.554 C 331.302 211.356 331.967 211.707 332.16 212.338 L 351.859 275.33 C 352.057 275.958 351.707 276.629 351.079 276.824 C 350.963 276.862 350.843 276.884 350.721 276.884 Z " fill="rgb(153,107,57)"/><path d=" M 353.637 277.743 C 353.536 277.743 353.431 277.728 353.335 277.706 L 316.11 268.064 C 315.467 267.899 315.087 267.247 315.251 266.604 C 315.418 265.969 316.072 265.584 316.711 265.749 L 353.939 275.388 C 354.578 275.552 354.959 276.205 354.795 276.848 C 354.649 277.388 354.167 277.743 353.637 277.743 Z " fill="rgb(153,107,57)"/></g><path d=" M 350.725 276.884 C 350.639 276.884 350.549 276.873 350.463 276.854 L 315.353 269.004 C 314.703 268.859 314.304 268.22 314.441 267.574 C 314.587 266.931 315.229 266.525 315.872 266.67 L 350.986 274.515 C 351.632 274.661 352.039 275.3 351.893 275.95 C 351.77 276.502 351.274 276.884 350.725 276.884 Z " fill="rgb(170,114,67)"/><g id="Group"><path d=" M 320.647 295.029 C 320.553 295.029 320.45 295.021 320.349 294.992 L 283.128 285.357 C 282.486 285.189 282.101 284.532 282.269 283.897 C 282.437 283.254 283.086 282.877 283.729 283.038 L 320.958 292.672 C 321.592 292.84 321.978 293.498 321.813 294.133 C 321.667 294.675 321.181 295.029 320.647 295.029 Z " fill="rgb(177,123,72)"/><path d=" M 317.738 269.568 C 317.641 269.568 317.543 269.557 317.446 269.531 L 282.87 260.886 C 282.224 260.726 281.836 260.08 281.996 259.437 C 282.156 258.794 282.806 258.406 283.449 258.567 L 318.029 267.212 C 318.672 267.372 319.06 268.022 318.896 268.661 C 318.765 269.202 318.276 269.568 317.738 269.568 Z " fill="rgb(177,123,72)"/></g><path d=" M 329.509 214.373 C 319.299 257.554 299.589 261.267 289.737 260.139 L 283.826 258.664 L 283.225 261.057 L 314.281 268.836 L 315.748 266.64 L 336.093 271.364 C 358.847 265.296 363.425 218.361 363.425 218.361 L 329.509 214.373 Z " fill="rgb(209,232,248)"/><g id="Group"><path d=" M 309.429 267.503 L 314.281 268.833 L 315.748 266.637 L 336.093 271.361 C 358.847 265.293 363.425 218.358 363.425 218.358 L 355.91 217.563 C 354.91 277.679 309.429 267.503 309.429 267.503 Z " fill="rgb(166,208,238)"/><path d=" M 329.509 214.373 C 319.299 257.554 299.589 261.267 289.737 260.139 L 283.826 258.664 L 283.225 261.057 L 290.675 262.849 C 290.675 262.849 323.687 271.58 336.164 215.169 L 329.509 214.373 Z " fill="rgb(166,208,238)"/></g><path d=" M 319.067 297.632 C 318.866 297.632 318.664 297.583 318.473 297.475 C 317.902 297.147 317.704 296.414 318.029 295.839 L 363.249 216.837 C 363.577 216.266 364.31 216.061 364.885 216.393 C 365.46 216.722 365.658 217.454 365.329 218.029 L 320.105 297.027 C 319.89 297.415 319.482 297.632 319.067 297.632 Z " fill="rgb(227,176,113)"/><path d=" M 343.009 216.032 L 349.791 216.768 C 349.791 216.768 347.263 268.101 304.436 266.241 L 298.315 264.777 C 298.319 264.781 338.419 265.308 343.009 216.032 Z " fill="rgb(166,208,238)"/><path d=" M 95.433 189.914 C 95.433 173.769 108.54 160.662 124.685 160.662 C 140.829 160.662 153.936 173.769 153.936 189.914 C 153.936 206.058 140.829 219.165 124.685 219.165 C 108.54 219.165 95.433 206.058 95.433 189.914 Z " fill="rgb(248,204,25)"/><path d=" M 101.997 189.443 C 101.997 175.887 113.003 164.881 126.559 164.881 C 140.115 164.881 151.12 175.887 151.12 189.443 C 151.12 202.998 140.115 214.004 126.559 214.004 C 113.003 214.004 101.997 202.998 101.997 189.443 Z " fill="rgb(248,209,46)"/><path d=" M 108.866 188.102 C 108.866 177.657 117.346 169.177 127.791 169.177 C 138.237 169.177 146.717 177.657 146.717 188.102 C 146.717 198.547 138.237 207.028 127.791 207.028 C 117.346 207.028 108.866 198.547 108.866 188.102 Z " fill="rgb(248,217,88)"/><path d=" M 211.718 120.547 C 211.718 116.204 222.471 112.678 235.716 112.678 C 248.961 112.678 259.714 116.204 259.714 120.547 C 259.714 124.889 248.961 128.415 235.716 128.415 C 222.471 128.415 211.718 124.889 211.718 120.547 Z " fill="rgb(229,242,230)"/><g id="Group"><g opacity="0.2"><path d=" M 288.808 303.872 L 183.385 303.872 L 211.708 120.551 L 260.486 120.551 L 288.808 303.872 Z " fill="rgb(255,255,255)"/></g><g opacity="0.15"><path d=" M 288.808 303.872 L 211.708 120.551 L 260.486 120.551 L 288.808 303.872 Z " fill="rgb(255,255,255)"/></g><g opacity="0.15"><path d=" M 183.385 303.872 L 211.708 120.551 L 260.486 120.551 L 183.385 303.872 Z " fill="rgb(255,255,255)"/></g></g><path d=" M 309.261 120.547 C 309.261 116.204 320.014 112.678 333.258 112.678 C 346.503 112.678 357.256 116.204 357.256 120.547 C 357.256 124.889 346.503 128.415 333.258 128.415 C 320.014 128.415 309.261 124.889 309.261 120.547 Z " fill="rgb(229,242,230)"/><g id="Group"><g opacity="0.2"><path d=" M 394.242 295.605 L 280.947 295.605 L 309.269 120.551 L 358.047 120.551 L 394.242 295.605 Z " fill="rgb(255,255,255)"/></g><g opacity="0.15"><path d=" M 394.242 295.605 L 309.269 120.551 L 358.047 120.551 L 394.242 295.605 Z " fill="rgb(255,255,255)"/></g><g opacity="0.15"><path d=" M 280.947 295.605 L 309.269 120.551 L 358.047 120.551 L 280.947 295.605 Z " fill="rgb(255,255,255)"/></g></g><path d=" M 114.138 120.547 C 114.138 116.204 124.891 112.678 138.136 112.678 C 151.381 112.678 162.134 116.204 162.134 120.547 C 162.134 124.889 151.381 128.415 138.136 128.415 C 124.891 128.415 114.138 124.889 114.138 120.547 Z " fill="rgb(229,242,230)"/><g id="Group"><g opacity="0.2"><path d=" M 191.246 295.605 L 74.016 295.605 L 114.142 120.551 L 162.925 120.551 L 191.246 295.605 Z " fill="rgb(255,255,255)"/></g><g opacity="0.15"><path d=" M 191.246 295.605 L 114.142 120.551 L 162.925 120.551 L 191.246 295.605 Z " fill="rgb(255,255,255)"/></g><g opacity="0.15"><path d=" M 74.016 295.605 L 114.142 120.551 L 162.925 120.551 L 74.016 295.605 Z " fill="rgb(255,255,255)"/></g></g></g></svg>