<?xml version="1.0" standalone="no"?><!-- Generator: Gravit.io --><svg xmlns="http://www.w3.org/2000/svg" xmlns:xlink="http://www.w3.org/1999/xlink" style="isolation:isolate" viewBox="0 0 473 473" width="473" height="473"><defs><clipPath id="_clipPath_lE5tmgJheC1UPVii5jaDV7AzKSNnRDQJ"><rect width="473" height="473"/></clipPath></defs><g clip-path="url(#_clipPath_lE5tmgJheC1UPVii5jaDV7AzKSNnRDQJ)"><rect width="473" height="473" style="fill:rgb(52,78,93)"/><path d=" M 0 236.5 C 0 105.972 105.972 0 236.5 0 C 367.027 0 472.999 105.972 472.999 236.5 C 472.999 367.027 367.027 472.999 236.5 472.999 C 105.972 472.999 0 367.027 0 236.5 Z " fill="rgb(52,78,93)"/><g id="Group"><path d=" M 101.278 184.876 C 101.278 115.751 161.518 59.631 235.716 59.631 C 309.915 59.631 370.154 115.751 370.154 184.876 C 370.154 254 309.915 310.12 235.716 310.12 C 161.518 310.12 101.278 254 101.278 184.876 Z " fill="rgb(249,238,209)"/><path d=" M 335.977 251.179 L 234.274 254.458 L 132.564 251.179 C 132.564 251.179 106.782 306.437 132.564 310.12 C 132.564 310.12 171.241 323.011 180.454 330.375 L 221.787 330.375 L 246.755 330.375 L 288.096 330.375 C 297.3 323.01 335.978 310.12 335.978 310.12 C 361.767 306.438 335.977 251.179 335.977 251.179 Z " fill="rgb(249,238,209)"/><path d=" M 289.711 348.129 C 289.711 349.906 282.227 352.644 272.066 355.022 C 271.783 355.089 269.112 347.509 268.739 347.415 C 268.28 347.303 267.193 356.094 266.909 356.154 C 257.495 358.081 246.676 359.582 237.523 359.814 C 236.698 359.836 235.884 353.054 235.088 353.054 C 234.383 353.054 233.665 359.832 232.938 359.821 C 225.264 359.641 216.431 358.558 208.264 357.076 C 207.57 356.949 207.032 348.125 206.352 347.99 C 205.542 347.833 203.346 356.116 203.114 356.071 C 190.787 353.483 181.066 350.175 181.066 348.128 L 181.066 307.079 C 181.066 303.329 185.772 300.301 191.574 300.301 L 279.195 300.301 C 285.002 300.301 289.711 303.333 289.711 307.079 L 289.711 348.129 L 289.711 348.129 Z " fill="rgb(249,238,209)"/><path d=" M 307.894 350.044 C 307.894 368.637 304.858 387.851 289.966 403.278 C 279.588 413.659 254.72 421.095 235.088 421.095 C 215.367 421.095 189.417 412.595 180.021 403.207 C 165.244 387.832 162.283 368.708 162.283 350.048 C 162.283 338.759 180.182 381.679 235.089 381.679 C 289.997 381.679 307.894 338.751 307.894 350.044 Z " fill="rgb(249,238,209)"/></g><g id="Group"><path d=" M 213.294 233.994 C 213.294 249.249 197.905 255.788 178.919 255.788 C 159.926 255.788 144.529 249.249 144.529 233.994 C 144.529 225.858 159.926 206.371 178.919 206.371 C 197.905 206.367 213.294 220.329 213.294 233.994 Z " fill="rgb(52,78,93)"/><path d=" M 258.728 233.994 C 258.728 249.249 274.117 255.788 293.103 255.788 C 312.088 255.788 327.486 249.249 327.486 233.994 C 327.486 225.858 312.089 206.371 293.103 206.371 C 274.116 206.371 258.728 220.329 258.728 233.994 Z " fill="rgb(52,78,93)"/><path d=" M 236.467 233.684 C 236.467 233.684 216.212 258.089 216.212 291.701 C 216.212 291.701 239.007 273.055 258.575 292.624 C 258.574 292.625 255.351 252.562 236.467 233.684 Z " fill="rgb(52,78,93)"/></g></g></svg>