<?xml version="1.0" standalone="no"?><!-- Generator: Gravit.io --><svg xmlns="http://www.w3.org/2000/svg" xmlns:xlink="http://www.w3.org/1999/xlink" style="isolation:isolate" viewBox="0 0 473 473" width="473" height="473"><defs><clipPath id="_clipPath_ybVUqdTTLCMEzYWDuSOR27KhtsFRU1GA"><rect width="473" height="473"/></clipPath></defs><g clip-path="url(#_clipPath_ybVUqdTTLCMEzYWDuSOR27KhtsFRU1GA)"><rect width="473" height="473" style="fill:rgb(227,170,36)"/><path d=" M 0 236.5 C 0 105.972 105.972 0 236.5 0 C 367.027 0 472.999 105.972 472.999 236.5 C 472.999 367.027 367.027 472.999 236.5 472.999 C 105.972 472.999 0 367.027 0 236.5 Z " fill="rgb(227,170,36)"/><g id="Group"><path d=" M 392.848 224.501 C 369.516 201.168 336.866 192.867 306.878 199.548 C 322.29 182.974 331.727 160.758 331.727 136.338 C 331.727 96.156 306.214 61.942 270.501 48.987 C 295.153 60.807 312.166 85.988 312.166 115.149 C 312.166 155.652 279.337 188.489 238.833 188.489 C 198.333 188.489 165.497 155.652 165.497 115.149 C 165.497 85.987 182.522 60.803 207.165 48.987 C 171.457 61.939 145.94 96.157 145.94 136.338 C 145.94 161.042 155.6 183.474 171.333 200.114 C 140.685 192.414 106.885 200.537 82.921 224.5 C 54.509 252.912 48.355 295.148 64.455 329.553 C 55.38 303.767 61.15 273.925 81.771 253.311 C 110.411 224.668 156.848 224.665 185.483 253.307 C 214.123 281.943 214.127 328.384 185.483 357.015 C 164.862 377.641 135.016 383.406 109.23 374.339 C 143.639 390.438 185.875 384.28 214.293 355.865 C 225.837 344.317 233.686 330.493 237.888 315.836 C 242.081 330.494 249.939 344.321 261.474 355.869 C 289.885 384.28 332.125 390.43 366.526 374.335 C 340.744 383.406 310.902 377.637 290.285 357.015 C 261.646 328.38 261.646 281.943 290.285 253.307 C 318.921 224.668 365.358 224.664 393.993 253.307 C 414.618 273.925 420.388 303.771 411.313 329.557 C 427.414 295.153 421.263 252.916 392.848 224.501 Z " fill="rgb(91,79,63)"/><path d=" M 161.973 237.65 C 161.973 237.605 161.977 237.571 161.977 237.527 C 154.709 234.487 147.054 232.669 139.321 232.071 C 139.22 233.916 139.156 235.776 139.156 237.65 C 139.156 279.864 165.334 316.058 202.29 330.917 C 205.05 323.548 206.593 315.834 206.895 308.062 C 180.39 295.683 161.973 268.78 161.973 237.65 Z " fill="rgb(91,79,63)"/><path d=" M 195.134 174.05 C 207.753 165.191 223.098 159.971 239.652 159.971 C 255.833 159.971 270.865 164.949 283.322 173.441 C 289.45 168.758 294.816 163.127 299.209 156.767 C 282.527 144.447 261.928 137.154 239.652 137.154 C 216.898 137.154 195.893 144.765 179.032 157.563 C 183.505 163.866 188.939 169.437 195.134 174.05 Z " fill="rgb(91,79,63)"/><path d=" M 317.335 237.65 C 317.335 270.113 297.303 297.98 268.963 309.575 C 269.422 317.249 271.073 324.864 273.937 332.119 C 312.521 318.07 340.149 281.025 340.149 237.65 C 340.149 235.708 340.074 233.793 339.966 231.881 C 332.277 232.108 324.621 233.527 317.298 236.16 C 317.305 236.657 317.335 237.153 317.335 237.65 Z " fill="rgb(91,79,63)"/></g><path d=" M 201.893 236.836 C 201.893 217.798 217.35 202.341 236.388 202.341 C 255.426 202.341 270.883 217.798 270.883 236.836 C 270.883 255.874 255.426 271.331 236.388 271.331 C 217.35 271.331 201.893 255.874 201.893 236.836 Z " fill="rgb(227,170,36)"/></g></svg>