<?xml version="1.0" standalone="no"?><!-- Generator: Gravit.io --><svg xmlns="http://www.w3.org/2000/svg" xmlns:xlink="http://www.w3.org/1999/xlink" style="isolation:isolate" viewBox="0 0 473 473" width="473" height="473"><defs><clipPath id="_clipPath_vuHJT8AazxHMiKCtjhJ4JKHBv9lKBOeN"><rect width="473" height="473"/></clipPath></defs><g clip-path="url(#_clipPath_vuHJT8AazxHMiKCtjhJ4JKHBv9lKBOeN)"><rect width="473" height="473" style="fill:rgb(153,202,65)"/><path d=" M 0.024 236.513 C 0.024 105.992 105.99 0.026 236.511 0.026 C 367.032 0.026 472.998 105.992 472.998 236.513 C 472.998 367.034 367.032 473 236.511 473 C 105.99 473 0.024 367.034 0.024 236.513 Z " fill="rgb(153,202,65)"/><path d=" M 236.5 0 C 105.885 0 0.002 105.88 0.002 236.498 C 0.002 327.908 51.896 407.147 127.801 446.517 L 446.523 127.795 C 407.152 51.894 327.909 0 236.5 0 Z " fill="rgb(144,137,133)"/><g id="Group"><path d=" M 58.527 193.924 C 56.6 190.284 52.083 188.883 48.434 190.818 L 0.943 215.949 C 0.45 221.681 0.159 227.465 0.081 233.305 L 55.422 204.015 C 59.069 202.091 60.459 197.573 58.527 193.924 Z " fill="rgb(255,255,255)"/><path d=" M 322.774 45.617 L 254.192 81.917 C 250.544 83.847 249.154 88.366 251.085 92.011 C 252.423 94.543 255.014 95.984 257.695 95.984 C 258.872 95.984 260.07 95.707 261.183 95.117 L 329.765 58.817 C 333.414 56.887 334.803 52.368 332.872 48.723 C 330.942 45.087 326.423 43.683 322.774 45.617 Z " fill="rgb(255,255,255)"/><path d=" M 185.606 118.218 L 117.024 154.521 C 113.375 156.451 111.986 160.97 113.917 164.615 C 115.255 167.146 117.845 168.588 120.527 168.588 C 121.704 168.588 122.902 168.311 124.015 167.721 L 192.597 131.418 C 196.246 129.488 197.635 124.969 195.704 121.324 C 193.774 117.68 189.255 116.282 185.606 118.218 Z " fill="rgb(255,255,255)"/></g><path d=" M 344.007 399.932 C 344.007 406.355 338.806 411.541 332.405 411.541 L 332.405 411.541 C 325.993 411.541 320.802 406.351 320.802 399.932 L 320.802 169.114 C 320.802 162.702 325.997 157.512 332.405 157.512 L 332.405 157.512 C 338.809 157.512 344.007 162.706 344.007 169.114 L 344.007 399.932 Z " fill="rgb(97,76,50)"/><path d=" M 253.24 172.845 C 253.24 129.235 288.646 93.829 332.256 93.829 C 375.866 93.829 411.272 129.235 411.272 172.845 C 411.272 216.455 375.866 251.861 332.256 251.861 C 288.646 251.861 253.24 216.455 253.24 172.845 Z " fill="rgb(232,72,73)"/><path d=" M 269.477 172.845 C 269.477 138.196 297.607 110.066 332.256 110.066 C 366.905 110.066 395.035 138.196 395.035 172.845 C 395.035 207.494 366.905 235.624 332.256 235.624 C 297.607 235.624 269.477 207.494 269.477 172.845 Z " fill="rgb(244,245,245)"/><path d=" M 361.02 390.903 C 360.027 389.966 358.525 389.831 357.375 390.552 L 343.962 399.085 L 336.412 381.47 C 335.949 380.384 334.881 379.682 333.697 379.67 C 333.69 379.67 333.686 379.67 333.675 379.67 C 332.503 379.67 331.435 380.369 330.953 381.436 L 322.909 399.555 L 303.48 397.546 C 302.244 397.445 301.027 398.095 300.485 399.226 C 299.944 400.365 300.179 401.721 301.068 402.61 L 314.836 416.374 C 315.389 416.934 316.147 417.248 316.939 417.248 L 347.07 417.248 C 348.146 417.248 349.139 416.665 349.662 415.732 L 361.567 394.522 C 362.237 393.338 362.018 391.844 361.02 390.903 Z " fill="rgb(138,181,63)"/><rect x="-10" y="-12" width="492" height="56.747" transform="matrix(1,0,0,1,0,0)" fill="rgb(144,137,133)"/><rect x="363.051" y="1.71" width="140" height="115.072" transform="matrix(0.701,-0.713,0.713,0.701,87.175,326.478)" fill="rgb(144,137,133)"/><rect x="-88.859" y="35.182" width="228.654" height="156.168" transform="matrix(0.885,-0.466,0.466,0.885,-49.84,24.911)" fill="rgb(144,137,133)"/><rect x="-16" y="236.513" width="143.801" height="210.004" transform="matrix(1,0,0,1,0,0)" fill="rgb(144,137,133)"/><rect x="-36.584" y="392.798" width="152.757" height="118.799" transform="matrix(0.695,-0.719,0.719,0.695,-312.951,166.476)" fill="rgb(144,137,133)"/></g></svg>