<?xml version="1.0" standalone="no"?><!-- Generator: Gravit.io --><svg xmlns="http://www.w3.org/2000/svg" xmlns:xlink="http://www.w3.org/1999/xlink" style="isolation:isolate" viewBox="0 0 473 473" width="473" height="473"><defs><clipPath id="_clipPath_seVMaAVbKpLLIlSklCJbQxZM8acQCrXI"><rect width="473" height="473"/></clipPath></defs><g clip-path="url(#_clipPath_seVMaAVbKpLLIlSklCJbQxZM8acQCrXI)"><rect width="473" height="473" style="fill:rgb(255,193,14)"/><path d=" M 0 236.5 C 0 105.972 105.972 0 236.5 0 C 367.029 0 473.001 105.972 473.001 236.5 C 473.001 367.029 367.029 473.001 236.5 473.001 C 105.972 473.001 0 367.029 0 236.5 Z " fill="rgb(255,193,14)"/><path d=" M 391.747 236.657 C 391.747 322.403 322.231 391.912 236.486 391.912 C 150.743 391.912 81.231 322.403 81.231 236.657 L 391.747 236.657 L 391.747 236.657 Z " fill="rgb(255,255,255)"/><g id="Group"><path d=" M 127.47 154.922 C 127.47 134.422 144.113 117.779 164.613 117.779 C 185.113 117.779 201.756 134.422 201.756 154.922 C 201.756 175.422 185.113 192.065 164.613 192.065 C 144.113 192.065 127.47 175.422 127.47 154.922 Z " fill="rgb(51,51,51)"/><path d=" M 267.921 154.922 C 267.921 134.422 284.564 117.779 305.064 117.779 C 325.563 117.779 342.206 134.422 342.206 154.922 C 342.206 175.422 325.563 192.065 305.064 192.065 C 284.564 192.065 267.921 175.422 267.921 154.922 Z " fill="rgb(51,51,51)"/></g></g></svg>