<?xml version="1.0" standalone="no"?><!-- Generator: Gravit.io --><svg xmlns="http://www.w3.org/2000/svg" xmlns:xlink="http://www.w3.org/1999/xlink" style="isolation:isolate" viewBox="0 0 473 473" width="473" height="473"><defs><clipPath id="_clipPath_L5IubutcTVlDb5tuF3NoCOhG9XFoinFy"><rect width="473" height="473"/></clipPath></defs><g clip-path="url(#_clipPath_L5IubutcTVlDb5tuF3NoCOhG9XFoinFy)"><rect width="473" height="473" style="fill:rgb(74,188,150)"/><path d=" M 0 236.5 C 0 105.972 105.972 0 236.5 0 C 367.029 0 473.001 105.972 473.001 236.5 C 473.001 367.029 367.029 473.001 236.5 473.001 C 105.972 473.001 0 367.029 0 236.5 Z " fill="rgb(74,188,150)"/><path d=" M 114.513 260.139 C 114.513 192.812 169.174 138.151 236.5 138.151 C 303.827 138.151 358.488 192.812 358.488 260.139 C 358.488 327.466 303.827 382.127 236.5 382.127 C 169.174 382.127 114.513 327.466 114.513 260.139 Z " fill="rgb(91,79,63)"/><g id="Group"><path d=" M 232.594 126.779 C 229.502 126.779 226.992 124.266 226.992 121.177 L 226.992 119.751 C 226.977 108.466 226.97 97.807 233.886 90.88 C 238.21 86.556 244.507 84.453 253.133 84.453 L 304.167 84.453 C 307.259 84.453 309.769 86.962 309.769 90.055 C 309.769 93.147 307.26 95.657 304.167 95.657 L 253.133 95.657 C 247.625 95.657 243.928 96.684 241.814 98.798 C 238.173 102.442 238.18 110.457 238.195 119.74 L 238.195 121.178 C 238.195 124.266 235.686 126.779 232.594 126.779 Z " fill="rgb(233,182,52)"/><path d=" M 256.561 84.454 L 253.133 84.454 C 248.823 84.454 245.089 84.981 241.9 86.045 L 247.136 94.604 L 256.561 84.454 Z " fill="rgb(233,182,52)"/><path d=" M 267.365 84.454 L 256.953 95.657 L 266.402 95.657 L 276.802 84.454 L 267.365 84.454 Z " fill="rgb(233,182,52)"/><path d=" M 226.992 119.751 L 226.992 121.177 C 226.992 124.265 229.501 126.779 232.594 126.779 C 235.686 126.779 238.196 124.266 238.196 121.177 L 238.196 119.739 C 238.189 118.429 238.196 117.155 238.203 115.9 L 227.552 105.875 C 227.015 110.232 226.985 114.923 226.992 119.751 Z " fill="rgb(233,182,52)"/><path d=" M 287.602 84.454 L 277.201 95.657 L 286.963 95.657 L 297.364 84.454 L 287.602 84.454 Z " fill="rgb(233,182,52)"/><path d=" M 233.886 90.877 C 232.063 92.7 230.749 94.798 229.759 97.08 L 238.882 105.669 C 239.296 103.298 239.969 101.304 241.041 99.803 L 234.979 89.91 C 234.614 90.223 234.233 90.534 233.886 90.877 Z " fill="rgb(233,182,52)"/><path d=" M 307.282 85.399 L 297.763 95.654 L 304.167 95.654 C 307.259 95.654 309.769 93.145 309.769 90.052 C 309.769 88.114 308.783 86.403 307.282 85.399 Z " fill="rgb(233,182,52)"/></g><g id="Group"><path d=" M 304.167 84.454 L 297.364 84.454 L 286.963 95.657 L 297.767 95.657 L 307.286 85.402 C 306.393 84.801 305.322 84.454 304.167 84.454 Z " fill="rgb(216,159,41)"/><path d=" M 276.802 84.454 L 266.402 95.657 L 277.201 95.657 L 287.602 84.454 L 276.802 84.454 Z " fill="rgb(216,159,41)"/><path d=" M 256.561 84.454 L 247.14 94.604 L 241.904 86.045 C 239.219 86.941 236.937 88.24 234.98 89.91 L 241.042 99.803 C 241.288 99.455 241.524 99.089 241.815 98.795 C 243.929 96.685 247.63 95.654 253.134 95.654 L 256.954 95.654 L 267.362 84.451 L 256.562 84.451 L 256.562 84.454 L 256.561 84.454 Z " fill="rgb(216,159,41)"/><path d=" M 227.552 105.875 L 238.202 115.902 C 238.232 112.089 238.37 108.608 238.882 105.673 L 229.759 97.084 C 228.598 99.758 227.941 102.726 227.552 105.875 Z " fill="rgb(216,159,41)"/></g><path d=" M 270.558 154.048 C 270.558 164.187 197.118 164.187 197.118 154.048 L 197.118 132.814 C 197.118 122.671 205.338 114.452 215.476 114.452 L 252.2 114.452 C 262.339 114.452 270.557 122.672 270.557 132.814 L 270.557 154.048 L 270.558 154.048 Z " fill="rgb(91,79,63)"/><path d=" M 321.025 72.829 L 316.028 87.569 L 325.327 100.03 L 309.776 99.835 L 300.792 112.533 L 296.172 97.685 L 281.317 93.058 L 294.021 84.081 L 293.827 68.523 L 306.289 77.825 L 321.025 72.829 Z " fill="rgb(218,135,39)"/><path d=" M 315.166 78.691 L 312.119 87.661 L 317.788 95.254 L 308.316 95.134 L 302.85 102.865 L 300.033 93.819 L 290.989 91.008 L 298.719 85.541 L 298.596 76.066 L 306.195 81.735 L 315.166 78.691 Z " fill="rgb(233,182,52)"/><path d=" M 163.601 217.862 C 156.498 210.785 158.421 197.331 167.889 187.834 C 177.363 178.326 190.791 176.359 197.902 183.439 C 205.005 190.516 203.089 203.96 193.608 213.464 C 184.148 222.967 170.707 224.938 163.601 217.862 Z " fill="rgb(190,184,177)"/></g></svg>