<?xml version="1.0" standalone="no"?><!-- Generator: Gravit.io --><svg xmlns="http://www.w3.org/2000/svg" xmlns:xlink="http://www.w3.org/1999/xlink" style="isolation:isolate" viewBox="0 0 473 473" width="473" height="473"><defs><clipPath id="_clipPath_JCe1gf8XC1k6iW6sGKLeQR5kJo6ly5Gw"><rect width="473" height="473"/></clipPath></defs><g clip-path="url(#_clipPath_JCe1gf8XC1k6iW6sGKLeQR5kJo6ly5Gw)"><rect width="473" height="473" style="fill:rgb(52,78,93)"/><path d=" M 0 236.5 C 0 105.972 105.972 0 236.5 0 C 367.027 0 472.999 105.972 472.999 236.5 C 472.999 367.027 367.027 472.999 236.5 472.999 C 105.972 472.999 0 367.027 0 236.5 Z " fill="rgb(52,78,93)"/><path d=" M 242.266 66.48 C 225.805 66.48 212.458 79.83 212.458 96.288 C 212.458 112.749 225.805 126.092 242.266 126.092 C 258.72 126.092 272.074 112.749 272.074 96.288 C 272.074 79.83 258.72 66.48 242.266 66.48 Z  M 242.688 117.38 C 232.673 117.38 224.55 109.261 224.55 99.246 C 224.55 89.231 232.676 81.116 242.688 81.116 C 252.7 81.116 260.818 89.235 260.818 99.246 C 260.822 109.261 252.703 117.38 242.688 117.38 Z " fill="rgb(234,231,68)"/><path d=" M 118.25 332.205 C 118.25 332.205 168.598 365.737 242.266 365.737 C 315.934 365.737 368.702 332.205 368.702 332.205 C 368.702 332.205 301.314 308.585 242.266 308.585 C 183.218 308.585 118.25 332.205 118.25 332.205 Z " fill="rgb(227,169,63)"/><path d=" M 118.25 332.205 C 118.25 332.205 168.598 365.737 242.266 365.737 L 242.266 308.586 C 183.214 308.585 118.25 332.205 118.25 332.205 Z " fill="rgb(236,176,80)"/><path d=" M 213.578 327.993 C 213.578 312.786 225.924 300.44 241.13 300.44 C 256.337 300.44 268.683 312.786 268.683 327.993 C 268.683 343.199 256.337 355.545 241.13 355.545 C 225.924 355.545 213.578 343.199 213.578 327.993 Z " fill="rgb(221,213,85)"/><path d=" M 242.513 107.379 C 151.218 107.379 162.178 190.656 146.557 252.21 C 145.952 254.612 131.399 263.511 123.889 279.636 C 116.383 295.765 117.697 332.205 118.25 332.205 C 120.54 332.205 196.153 314.213 242.266 314.213 C 288.379 314.213 368.702 333.374 368.702 333.374 C 368.702 333.374 368.833 292.344 361.409 279.206 C 353.992 266.072 340.011 256.09 339.338 253.502 C 323.4 191.471 333.803 107.379 242.513 107.379 Z " fill="rgb(234,231,68)"/><path d=" M 242.513 107.379 C 151.218 107.379 162.178 190.656 146.557 252.21 C 145.952 254.612 131.399 263.511 123.889 279.636 C 116.383 295.765 117.697 332.205 118.25 332.205 C 120.54 332.205 196.153 314.213 242.266 314.213 L 242.513 107.379 Z " fill="rgb(241,232,95)"/></g></svg>