<?xml version="1.0" standalone="no"?><!-- Generator: Gravit.io --><svg xmlns="http://www.w3.org/2000/svg" xmlns:xlink="http://www.w3.org/1999/xlink" style="isolation:isolate" viewBox="0 0 509 509" width="509" height="509"><defs><clipPath id="_clipPath_58uwnyhPGDHwkKcvaZPN27YSkFaC7Afa"><rect width="509" height="509"/></clipPath></defs><g clip-path="url(#_clipPath_58uwnyhPGDHwkKcvaZPN27YSkFaC7Afa)"><rect width="509" height="509" style="fill:rgb(114,90,210)"/><path d=" M 0 254.5 C 0 114.038 114.038 0 254.5 0 C 394.963 0 509.001 114.038 509.001 254.5 C 509.001 394.963 394.963 509.001 254.5 509.001 C 114.038 509.001 0 394.963 0 254.5 Z " fill="rgb(114,90,210)"/><path d=" M 411.063 75.57 L 97.937 75.57 C 85.398 75.57 75.57 85.737 75.57 97.937 L 75.57 410.724 C 75.57 423.263 85.737 433.091 97.937 433.091 L 410.724 433.091 C 423.263 433.091 433.091 422.925 433.091 410.724 L 433.091 97.937 C 433.43 85.737 423.263 75.57 411.063 75.57 Z " fill="rgb(241,243,247)"/><path d=" M 411.063 75.57 L 97.937 75.57 C 85.398 75.57 75.57 85.737 75.57 97.937 L 75.57 106.748 C 75.57 94.209 85.737 84.381 97.937 84.381 L 410.724 84.381 C 423.263 84.381 433.091 94.548 433.091 106.748 L 433.091 97.937 C 433.43 85.737 423.263 75.57 411.063 75.57 Z " fill="rgb(252,252,253)"/><path d=" M 232.473 291.1 L 326.004 197.568 L 389.037 260.6 L 389.037 123.014 L 119.964 123.014 L 119.964 298.216 L 179.608 238.234 L 232.473 291.1 Z " fill="rgb(62,185,227)"/><rect x="119.964" y="123.014" width="269.411" height="6.438" transform="matrix(1,0,0,1,0,0)" fill="rgb(79,204,237)"/><path d=" M 326.004 197.568 L 232.473 291.1 L 179.608 238.234 L 119.964 298.216 L 119.964 358.198 L 389.037 358.198 L 389.037 260.6 L 326.004 197.568 Z " fill="rgb(68,132,197)"/><path d=" M 209.09 184.352 C 209.09 169.95 220.783 158.258 235.184 158.258 C 249.586 158.258 261.279 169.95 261.279 184.352 C 261.279 198.754 249.586 210.446 235.184 210.446 C 220.783 210.446 209.09 198.754 209.09 184.352 Z " fill="rgb(251,211,3)"/></g></svg>