<?xml version="1.0" standalone="no"?><!-- Generator: Gravit.io --><svg xmlns="http://www.w3.org/2000/svg" xmlns:xlink="http://www.w3.org/1999/xlink" style="isolation:isolate" viewBox="0 0 508 508" width="508" height="508"><defs><clipPath id="_clipPath_TVh083WCLovmdkjl89ywBNBAnUGHudHj"><rect width="508" height="508"/></clipPath></defs><g clip-path="url(#_clipPath_TVh083WCLovmdkjl89ywBNBAnUGHudHj)"><rect width="508" height="508" style="fill:rgb(50,74,94)"/><path d=" M 0 254 C 0 113.7 113.7 0 254 0 C 394.3 0 508 113.7 508 254 C 508 394.3 394.3 508 254 508 C 113.7 508 0 394.3 0 254 Z " fill="rgb(50,74,94)"/><path d=" M 254 301.3 L 353.4 353.4 L 301.3 254 L 353.4 154.6 L 254 206.7 L 154.6 154.6 L 206.7 254 L 154.6 353.4 L 254 301.3 Z " fill="rgb(255,255,255)"/><g id="Group"><path d=" M 254 206.7 L 254 254 L 353.4 154.6 L 254 206.7 Z " fill="rgb(230,233,238)"/><path d=" M 254.4 253.6 L 154.6 353.4 L 254.4 300.9 L 254.4 253.6 Z " fill="rgb(230,233,238)"/><path d=" M 301.3 254 L 254 254 L 353.4 353.4 L 301.3 254 Z " fill="rgb(230,233,238)"/><path d=" M 254.4 254.4 L 154.6 154.6 L 207.1 254.4 L 254.4 254.4 Z " fill="rgb(230,233,238)"/></g><path d=" M 302.6 302.6 L 458.1 254 L 302.6 205.4 L 254 49.9 L 205.4 205.4 L 49.9 254 L 205.4 302.6 L 254 458.1 L 302.6 302.6 Z " fill="rgb(255,255,255)"/><g id="Group"><path d=" M 205.4 205.4 L 254 254 L 254 49.9 L 205.4 205.4 Z " fill="rgb(230,233,238)"/><path d=" M 254 253.2 L 254 458.1 L 302.6 301.7 L 254 253.2 Z " fill="rgb(230,233,238)"/><path d=" M 302.6 205.4 L 254 254 L 458.1 254 L 302.6 205.4 Z " fill="rgb(230,233,238)"/><path d=" M 254.8 254 L 49.9 254 L 206.3 302.6 L 254.8 254 Z " fill="rgb(230,233,238)"/></g></g></svg>