<?xml version="1.0" standalone="no"?><!-- Generator: Gravit.io --><svg xmlns="http://www.w3.org/2000/svg" xmlns:xlink="http://www.w3.org/1999/xlink" style="isolation:isolate" viewBox="0 0 512 512" width="512" height="512"><defs><clipPath id="_clipPath_wd6kKvFBhthpkYExaRqBuBzoeNcwPxWv"><rect width="512" height="512"/></clipPath></defs><g clip-path="url(#_clipPath_wd6kKvFBhthpkYExaRqBuBzoeNcwPxWv)"><rect width="512" height="512" style="fill:rgb(44,63,82)"/><g id="Design"><g id="lightbulb"><path d=" M 0 256 C 0 114.71 114.71 0 256 0 C 397.29 0 512 114.71 512 256 C 512 397.29 397.29 512 256 512 C 114.71 512 0 397.29 0 256 Z " fill="none"/><g id="Group"><path d=" M 348.754 221.396 C 348.754 170.169 308 128.644 256 128.644 C 205 128.644 163.248 170.169 163.248 221.396 C 163.248 223.06 163.293 224.716 163.38 226.359 L 163.247 226.392 C 163.247 252.078 184.652 290.124 193.214 304.394 C 201.776 318.662 208.911 356 208.911 356 L 234.801 356 L 253.146 356 L 256 356 L 303.801 356 C 303.801 356 310.224 318.662 318.785 304.395 C 327.347 290.125 348.752 252.195 348.752 226.509 L 348.618 226.418 C 348.706 224.773 348.754 223.061 348.754 221.396 Z " fill="rgb(244,195,66)"/><path d=" M 348.754 221.396 C 348.754 170.169 308 128.644 256 128.644 L 256 356 L 303.801 356 C 303.801 356 310.224 318.662 318.785 304.395 C 327.347 290.125 348.752 252.195 348.752 226.509 L 348.618 226.418 C 348.706 224.773 348.754 223.061 348.754 221.396 Z " fill="rgb(248,155,54)"/><g id="Group"><path d=" M 285.002 360.168 C 282.834 360.168 281 358.41 281 356.244 L 281 308.441 C 281 305.912 281.75 302.966 282.82 300.673 L 291.793 282 L 281.065 282 C 280.502 282 279.383 281.951 279.1 282.438 L 271.504 295.171 C 270.277 297.29 268.34 298.279 266.225 298.176 C 264.1 298.08 262.289 296.665 261.258 294.443 L 255.974 283.012 L 250.745 294.363 C 249.719 296.59 247.912 297.914 245.783 298.013 C 243.646 298.107 241.734 296.951 240.502 294.832 L 232.908 282.442 C 232.627 281.954 231.507 282 230.943 282 L 220.18 282 L 229.12 300.684 C 230.177 302.979 230.999 305.918 230.999 308.442 L 230.999 356.245 C 230.999 358.411 229.667 360.169 227.499 360.169 C 225.333 360.169 223.999 358.411 223.999 356.245 L 223.999 308.442 C 223.999 307.049 222.997 304.538 222.413 303.272 L 212.208 281.571 C 211.246 279.483 211.229 277.395 212.351 275.641 C 213.476 273.891 215.327 273 217.626 273 L 230.942 273 C 234.32 273 238.001 275.004 239.695 277.924 L 245.282 287.487 L 250.799 275.466 C 252.649 271.445 253.342 269.926 255.959 269.926 C 258.569 269.926 259.265 271.419 261.126 275.429 L 266.708 287.457 L 272.313 277.922 C 274.006 275.004 277.687 272.999 281.064 272.999 L 294.382 272.999 C 296.686 272.999 298.649 273.89 299.768 275.647 C 300.89 277.407 300.972 279.55 299.998 281.638 L 290.006 303.325 C 289.418 304.581 288.998 307.054 288.998 308.44 L 288.998 356.243 C 289 358.41 287.168 360.168 285.002 360.168 Z " fill="rgb(236,124,45)"/></g><path d=" M 294.384 273 L 281.066 273 C 277.689 273 274.008 275.004 272.315 277.922 L 266.71 287.513 L 261.128 275.45 C 259.278 271.464 259.001 269.93 256.001 269.915 L 256.001 283.02 L 261.261 294.356 C 262.292 296.579 264.099 297.907 266.227 298.004 C 268.34 298.108 270.279 296.943 271.507 294.826 L 279.102 282.437 C 279.385 281.951 280.503 281.999 281.067 281.999 L 291.795 281.999 L 282.822 300.673 C 281.752 302.966 281.002 305.911 281.002 308.441 L 281.002 356 L 289.002 356 L 289.002 308.441 C 289.002 307.054 289.422 304.554 290.01 303.298 L 300.048 281.581 C 301.02 279.493 300.914 277.407 299.795 275.647 C 298.674 273.891 296.688 273 294.384 273 Z " fill="rgb(217,82,30)"/><g id="Group"><path d=" M 213.19 352 C 205.342 352 199 356.957 199 364.805 L 199 414.75 C 199 446.143 225 471.828 256 471.828 L 256 352 L 213.19 352 L 213.19 352 Z " fill="rgb(189,195,199)"/><path d=" M 298.808 352 L 256 352 L 256 471.828 C 288 471.828 313 446.142 313 414.75 L 313 364.805 C 313 356.957 306.657 352 298.808 352 Z " fill="rgb(148,165,166)"/></g><path d=" M 321 381.217 L 321 370.512 C 321 368.551 318.607 367 316.646 367 L 256 367 L 256 385 L 316.646 385 C 318.607 385 321 383.178 321 381.217 Z " fill="rgb(189,195,199)"/><path d=" M 195.354 367 C 193.394 367 192 368.551 192 370.512 L 192 381.217 C 192 383.178 193.394 385 195.354 385 L 256 385 L 256 367 L 195.354 367 L 195.354 367 L 195.354 367 Z " fill="rgb(236,240,241)"/><path d=" M 316.646 418 C 318.608 418 321 415.998 321 414.035 L 321 403.332 C 321 401.371 318.607 400 316.646 400 L 256 400 L 256 418 L 316.646 418 L 316.646 418 Z " fill="rgb(189,195,199)"/><path d=" M 192 403.332 L 192 414.035 C 192 415.998 193.394 418 195.354 418 L 256 418 L 256 400 L 195.354 400 C 193.394 400 192 401.371 192 403.332 Z " fill="rgb(236,240,241)"/><g id="Group"><path d=" M 256.5 92.971 C 250.589 92.971 246 88.18 246 82.268 L 246 50.875 C 246 44.965 250.589 40.172 256.5 40.172 C 262.409 40.172 267 44.965 267 50.875 L 267 82.268 C 267 88.18 262.409 92.971 256.5 92.971 Z " fill="rgb(244,195,66)"/></g><g id="Group"><g id="Group"><path d=" M 256.5 92.971 C 250.589 92.971 246 88.18 246 82.268 L 246 50.875 C 246 44.965 250.589 40.172 256.5 40.172 C 262.409 40.172 267 44.965 267 50.875 L 267 82.268 C 267 88.18 262.409 92.971 256.5 92.971 Z " fill="rgb(244,195,66)"/></g></g><g id="Group"><path d=" M 423.668 230 L 392.273 230 C 386.364 230 381.57 225.41 381.57 219.5 C 381.57 213.588 386.364 209 392.273 209 L 423.668 209 C 429.578 209 434.369 213.588 434.369 219.5 C 434.369 225.41 429.578 230 423.668 230 Z " fill="rgb(248,155,54)"/></g><g id="Group"><g id="Group"><path d=" M 423.668 230 L 392.273 230 C 386.364 230 381.57 225.41 381.57 219.5 C 381.57 213.588 386.364 209 392.273 209 L 423.668 209 C 429.578 209 434.369 213.588 434.369 219.5 C 434.369 225.41 429.578 230 423.668 230 Z " fill="rgb(248,155,54)"/></g></g><g id="Group"><g id="Group"><path d=" M 119.725 230 L 88.332 230 C 82.423 230 77.63 225.41 77.63 219.5 C 77.63 213.588 82.423 209 88.332 209 L 119.725 209 C 125.635 209 130.429 213.588 130.429 219.5 C 130.429 225.41 125.635 230 119.725 230 Z " fill="rgb(244,195,66)"/></g></g><g id="Group"><g id="Group"><path d=" M 159.64 132.885 C 156.899 132.885 154.161 131.84 152.072 129.75 L 129.873 107.553 C 125.693 103.373 125.693 96.596 129.873 92.416 C 134.053 88.236 140.83 88.236 145.008 92.416 L 167.207 114.615 C 171.386 118.793 171.386 125.57 167.207 129.75 C 165.117 131.84 162.378 132.885 159.64 132.885 Z " fill="rgb(244,195,66)"/></g></g><g id="Group"><path d=" M 352.358 132.885 C 349.621 132.885 346.883 131.842 344.793 129.752 C 340.612 125.572 340.612 118.797 344.793 114.617 L 366.989 92.416 C 371.168 88.238 377.944 88.236 382.125 92.416 C 386.303 96.596 386.303 103.373 382.125 107.553 L 359.927 129.752 C 357.839 131.842 355.098 132.885 352.358 132.885 Z " fill="rgb(248,155,54)"/></g><g id="Group"><g id="Group"><path d=" M 352.358 132.885 C 349.621 132.885 346.883 131.842 344.793 129.752 C 340.612 125.572 340.612 118.797 344.793 114.617 L 366.989 92.416 C 371.168 88.238 377.944 88.236 382.125 92.416 C 386.303 96.596 386.303 103.373 382.125 107.553 L 359.927 129.752 C 357.839 131.842 355.098 132.885 352.358 132.885 Z " fill="rgb(248,155,54)"/></g></g></g></g></g></g></svg>