<?xml version="1.0" standalone="no"?><!-- Generator: Gravit.io --><svg xmlns="http://www.w3.org/2000/svg" xmlns:xlink="http://www.w3.org/1999/xlink" style="isolation:isolate" viewBox="0 0 473 473" width="473" height="473"><defs><clipPath id="_clipPath_jlO3alvETErQekGo3AZVh574p43bYvhg"><rect width="473" height="473"/></clipPath></defs><g clip-path="url(#_clipPath_jlO3alvETErQekGo3AZVh574p43bYvhg)"><rect width="473" height="473" style="fill:rgb(149,78,157)"/><path d=" M 0 236.5 C 0 105.972 105.972 0 236.5 0 C 367.029 0 473.001 105.972 473.001 236.5 C 473.001 367.029 367.029 473.001 236.5 473.001 C 105.972 473.001 0 367.029 0 236.5 Z " fill="rgb(149,78,157)"/><g id="Group"><path d=" M 190.007 180.723 L 408.078 399.212 C 412.82 394.208 417.347 389.002 421.652 383.595 L 206.367 176.212 C 202.405 172.261 195.22 175.503 190.007 180.723 Z " fill="rgb(154,115,56)"/><path d=" M 186.022 196.564 C 185.133 195.675 184.416 194.828 183.916 193.954 C 184.137 195.119 184.618 196.191 185.507 197.08 L 393.67 413.194 C 393.749 413.119 393.831 413.056 393.91 412.981 L 186.022 196.564 Z " fill="rgb(154,115,56)"/></g><g id="Group"><path d=" M 190.007 180.723 L 190.007 180.723 C 183.195 187.542 182.187 190.929 183.916 193.954 C 183.165 189.966 185.974 184.76 190.007 180.723 Z " fill="rgb(130,94,45)"/><path d=" M 183.916 193.95 C 184.42 194.825 185.134 195.672 186.022 196.56 L 393.91 412.977 C 398.824 408.593 403.537 403.985 408.075 399.204 L 190.007 180.723 C 185.974 184.76 183.165 189.966 183.916 193.95 Z " fill="rgb(130,94,45)"/></g><path d=" M 265.845 92.005 C 270.965 94.615 259.548 164.956 261.43 169.527 C 263.313 174.098 322.843 212.354 322.795 217.108 C 322.735 221.861 251.781 232.923 247.706 236.874 C 243.621 240.825 226.913 309.403 221.412 309.934 C 215.911 310.461 183.011 246.236 179.408 244.623 C 175.812 243.006 104.006 247.199 101.811 242.187 C 99.607 237.176 150.131 187.116 150.941 182.067 C 151.743 177.014 125.748 110.923 129.263 107.509 C 132.784 104.1 197.554 135.854 201.632 135.648 C 205.71 135.45 260.725 89.391 265.845 92.005 Z " fill="rgb(245,216,39)"/><path d=" M 239.014 139.395 C 241.501 140.664 235.967 174.816 236.878 177.038 C 237.789 179.256 266.693 197.824 266.667 200.139 C 266.645 202.447 232.199 207.821 230.212 209.733 C 228.225 211.645 220.118 244.949 217.448 245.206 C 214.778 245.46 198.806 214.281 197.054 213.498 C 195.303 212.713 160.438 214.748 159.374 212.314 C 158.31 209.887 182.837 185.583 183.233 183.13 C 183.622 180.676 171.003 148.59 172.71 146.932 C 174.417 145.274 205.868 160.693 207.843 160.596 C 209.814 160.494 236.533 138.128 239.014 139.395 Z " fill="rgb(247,228,151)"/><g id="Group"><path d=" M 317.69 146.419 C 318.347 149.133 294.794 167.597 288.833 168.172 C 286.368 168.411 281.947 166.532 280.345 162.242 C 278.739 157.962 279.644 154.354 282.264 152.54 C 286.635 149.534 317.033 143.707 317.69 146.419 Z " fill="rgb(244,217,103)"/><path d=" M 194.936 79.928 C 197.722 80.039 209.008 107.768 207.921 113.645 C 207.469 116.088 204.448 119.822 199.885 120.191 C 195.333 120.55 192.102 118.69 191.09 115.669 C 189.394 110.647 192.151 79.819 194.936 79.928 Z " fill="rgb(244,217,103)"/><path d=" M 92.968 176.107 C 93.641 173.393 123.056 167.896 128.606 170.132 C 130.902 171.05 133.961 174.763 133.404 179.307 C 132.845 183.841 130.375 186.631 127.221 187.026 C 121.962 187.681 92.307 178.815 92.968 176.107 Z " fill="rgb(244,217,103)"/><path d=" M 153.756 296.456 C 151.467 294.862 156.762 265.413 160.825 261.017 C 162.502 259.191 167.054 257.664 171.11 259.789 C 175.151 261.924 176.88 265.215 176.129 268.307 C 174.871 273.46 156.054 298.039 153.756 296.456 Z " fill="rgb(244,217,103)"/></g></g></svg>