<?xml version="1.0" standalone="no"?><!-- Generator: Gravit.io --><svg xmlns="http://www.w3.org/2000/svg" xmlns:xlink="http://www.w3.org/1999/xlink" style="isolation:isolate" viewBox="0 0 473 473" width="473" height="473"><defs><clipPath id="_clipPath_qGDtCp7nHnVSGM618GYQm92kH3aI6ZfA"><rect width="473" height="473"/></clipPath></defs><g clip-path="url(#_clipPath_qGDtCp7nHnVSGM618GYQm92kH3aI6ZfA)"><rect width="473" height="473" style="fill:rgb(31,168,91)"/><path d=" M 0 236.5 C 0 105.972 105.972 0 236.5 0 C 367.028 0 473 105.972 473 236.5 C 473 367.028 367.028 473 236.5 473 C 105.972 473 0 367.028 0 236.5 Z " fill="rgb(31,168,91)"/><g id="Group"><path d=" M 357.703 297.983 C 357.703 364.291 303.946 382.978 237.634 382.978 C 171.323 382.978 117.566 364.291 117.566 297.983 C 117.566 231.668 171.324 142.837 237.635 142.837 C 303.947 142.837 357.703 231.668 357.703 297.983 Z " fill="rgb(187,129,60)"/><path d=" M 234.95 138.591 L 238.285 138.591 L 254.533 138.591 L 293.207 90.241 L 293.207 71.73 L 266.465 71.73 L 266.465 61.226 L 238.285 61.226 L 234.95 61.226 L 206.774 61.226 L 206.774 71.73 L 180.036 71.73 L 180.036 90.241 L 218.713 138.591 L 234.95 138.591 Z " fill="rgb(187,129,60)"/></g><g id="Group"><path d=" M 266.465 71.73 L 241.295 133.763 L 281.982 71.824 L 266.465 71.73 Z " fill="rgb(160,109,53)"/><path d=" M 206.979 71.73 L 232.149 133.763 L 191.463 71.824 L 206.979 71.73 Z " fill="rgb(160,109,53)"/><path d=" M 219.011 169.729 L 235.294 152.793 L 208.992 169.699 L 219.011 169.729 Z " fill="rgb(160,109,53)"/><path d=" M 257.473 169.729 L 241.201 152.793 L 267.503 169.699 L 257.473 169.729 Z " fill="rgb(160,109,53)"/></g><path d=" M 260.494 143.427 C 260.494 146.295 258.167 148.622 255.292 148.622 L 219.289 148.622 C 216.413 148.622 214.087 146.295 214.087 143.427 L 214.087 143.427 C 214.087 140.559 216.414 138.226 219.289 138.226 L 255.292 138.226 C 258.167 138.229 260.494 140.563 260.494 143.427 L 260.494 143.427 Z " fill="rgb(141,96,47)"/><path d=" M 232.754 61.774 L 241.295 61.774 L 236.459 131.253 L 232.754 61.774 Z " fill="rgb(160,109,53)"/><path d=" M 281.41 234.454 C 281.41 242.826 271.913 248.787 271.361 248.043 C 264.28 239.853 252.177 233.703 239.887 233.703 C 227.407 233.703 219.777 239.289 219.777 247.669 C 219.777 257.357 230.017 259.959 244.357 263.126 C 261.49 266.853 284.02 273.746 284.02 298.136 C 284.02 316.946 270.987 329.98 249.192 333.336 L 249.192 340.592 C 249.192 349.162 245.846 353.256 238.396 353.256 L 237.463 353.256 C 229.643 353.256 226.849 349.346 226.849 340.592 L 226.849 333.706 C 204.313 331.286 191.466 321.042 191.466 310.612 C 191.466 302.602 200.402 296.836 201.145 297.579 C 208.225 306.142 222.005 313.218 236.529 313.218 C 249.753 313.218 257.389 307.632 257.389 299.252 C 257.389 289.012 245.842 286.219 232.249 283.052 C 215.859 279.516 194.263 273.003 194.263 248.415 C 194.263 230.539 206.926 217.692 227.032 213.965 L 227.032 207.072 C 227.032 198.509 230.199 194.409 237.652 194.409 L 238.769 194.409 C 246.398 194.409 249.382 198.318 249.382 207.072 L 249.382 213.409 C 270.053 215.643 281.41 224.949 281.41 234.454 Z " fill="rgb(141,96,47)"/></g></svg>