<?xml version="1.0" standalone="no"?><!-- Generator: Gravit.io --><svg xmlns="http://www.w3.org/2000/svg" xmlns:xlink="http://www.w3.org/1999/xlink" style="isolation:isolate" viewBox="0 0 509 509" width="509" height="509"><defs><clipPath id="_clipPath_YZH2wAqQlG6foRnQIVspIzIsPvdVUL4F"><rect width="509" height="509"/></clipPath></defs><g clip-path="url(#_clipPath_YZH2wAqQlG6foRnQIVspIzIsPvdVUL4F)"><rect width="509" height="509" style="fill:rgb(247,207,162)"/><path d=" M 0 254.5 C 0 114.038 114.038 0 254.5 0 C 394.963 0 509.001 114.038 509.001 254.5 C 509.001 394.963 394.963 509.001 254.5 509.001 C 114.038 509.001 0 394.963 0 254.5 Z " fill="rgb(247,207,162)"/><path d=" M 254.5 451.729 L 83.704 353.115 L 83.704 155.886 L 254.5 57.272 L 425.297 155.886 L 425.297 353.115 L 254.5 451.729 Z  M 106.409 340.237 L 254.5 425.635 L 402.592 339.898 L 402.592 168.763 L 254.5 83.365 L 106.409 168.763 L 106.409 340.237 Z " fill="rgb(241,243,247)"/><rect x="235.523" y="237.556" width="37.955" height="27.788" transform="matrix(1,0,0,1,0,0)" fill="rgb(240,186,122)"/><path d=" M 211.463 194.518 C 211.463 170.765 230.747 151.481 254.5 151.481 C 278.254 151.481 297.538 170.765 297.538 194.518 C 297.538 218.271 278.254 237.556 254.5 237.556 C 230.747 237.556 211.463 218.271 211.463 194.518 Z " fill="rgb(79,85,101)"/><path d=" M 229.761 255.517 L 254.5 256.872 L 279.239 255.517 L 273.478 335.832 L 235.523 335.832 L 229.761 255.517 Z " fill="rgb(222,222,223)"/><path d=" M 248.739 273.817 L 241.623 319.905 L 254.5 335.832 L 267.377 319.905 L 260.261 273.817 L 248.739 273.817 Z " fill="rgb(240,88,47)"/><path d=" M 229.761 255.517 C 228.067 256.195 173.846 280.255 173.846 280.255 L 160.968 335.832 L 254.838 335.832 L 229.761 255.517 Z " fill="rgb(75,90,167)"/><path d=" M 229.761 255.517 L 218.918 260.261 L 202.312 285.677 L 217.901 291.1 L 204.007 307.027 L 235.523 335.832 L 254.5 335.832 L 229.761 255.517 Z " fill="rgb(37,125,192)"/><path d=" M 279.239 255.517 C 280.933 256.195 335.154 280.255 335.154 280.255 L 348.032 335.832 L 254.5 335.832 L 279.239 255.517 Z " fill="rgb(75,90,167)"/><path d=" M 279.239 255.517 L 290.082 260.261 L 306.688 285.677 L 291.1 291.1 L 304.994 307.027 L 273.478 335.832 L 254.5 335.832 L 279.239 255.517 Z " fill="rgb(37,125,192)"/><path d=" M 257.55 256.872 L 251.45 256.872 L 241.623 267.038 L 248.739 273.817 L 260.261 273.817 L 267.377 267.038 L 257.55 256.872 Z " fill="rgb(213,66,50)"/><g id="Group"><path d=" M 229.761 255.517 L 235.184 246.367 L 254.5 256.872 L 240.268 275.849 L 229.761 255.517 Z " fill="rgb(241,243,247)"/><path d=" M 279.239 255.517 L 273.817 246.367 L 254.5 256.872 L 268.733 275.849 L 279.239 255.517 Z " fill="rgb(241,243,247)"/></g><path d=" M 225.356 193.502 C 225.356 193.502 255.516 195.196 268.055 176.557 C 268.055 176.557 271.783 187.401 282.288 191.807 L 282.288 207.056 L 287.371 207.056 C 287.371 205.701 287.371 204.006 287.371 202.651 C 287.371 178.251 272.46 158.935 254.161 158.935 C 235.861 158.935 220.95 178.59 220.95 202.651 C 220.95 204.006 220.95 205.701 220.95 207.056 L 224.678 207.056 L 224.678 193.501 L 225.356 193.501 L 225.356 193.502 Z " fill="rgb(79,85,101)"/><path d=" M 282.289 206.717 L 282.289 191.807 C 271.784 187.74 268.056 176.557 268.056 176.557 C 255.178 195.196 225.357 193.502 225.357 193.502 L 225.357 207.057 L 221.629 207.057 C 223.323 229.085 237.556 246.707 254.5 246.707 C 271.445 246.707 285.678 229.424 287.372 207.057 L 282.289 207.057 L 282.289 206.717 Z " fill="rgb(247,207,162)"/><path d=" M 212.14 70.148 C 212.14 46.769 231.121 27.788 254.5 27.788 C 277.88 27.788 296.861 46.769 296.861 70.148 C 296.861 93.528 277.88 112.509 254.5 112.509 C 231.121 112.509 212.14 93.528 212.14 70.148 Z " fill="rgb(110,177,225)"/><path d=" M 212.14 438.852 C 212.14 415.472 231.121 396.491 254.5 396.491 C 277.88 396.491 296.861 415.472 296.861 438.852 C 296.861 462.231 277.88 481.212 254.5 481.212 C 231.121 481.212 212.14 462.231 212.14 438.852 Z " fill="rgb(100,107,121)"/><path d=" M 52.526 162.324 C 52.526 138.945 71.507 119.964 94.886 119.964 C 118.266 119.964 137.247 138.945 137.247 162.324 C 137.247 185.704 118.266 204.685 94.886 204.685 C 71.507 204.685 52.526 185.704 52.526 162.324 Z " fill="rgb(251,211,3)"/><path d=" M 371.753 346.677 C 371.753 323.297 390.734 304.316 414.114 304.316 C 437.493 304.316 456.474 323.297 456.474 346.677 C 456.474 370.056 437.493 389.037 414.114 389.037 C 390.734 389.037 371.753 370.056 371.753 346.677 Z " fill="rgb(240,88,47)"/><path d=" M 52.526 346.677 C 52.526 323.297 71.507 304.316 94.886 304.316 C 118.266 304.316 137.247 323.297 137.247 346.677 C 137.247 370.056 118.266 389.037 94.886 389.037 C 71.507 389.037 52.526 370.056 52.526 346.677 Z " fill="rgb(113,212,86)"/><path d=" M 371.753 162.324 C 371.753 138.945 390.734 119.964 414.114 119.964 C 437.493 119.964 456.474 138.945 456.474 162.324 C 456.474 185.704 437.493 204.685 414.114 204.685 C 390.734 204.685 371.753 185.704 371.753 162.324 Z " fill="rgb(136,108,96)"/></g></svg>