<?xml version="1.0" standalone="no"?><!-- Generator: Gravit.io --><svg xmlns="http://www.w3.org/2000/svg" xmlns:xlink="http://www.w3.org/1999/xlink" style="isolation:isolate" viewBox="0 0 473 473" width="473" height="473"><defs><clipPath id="_clipPath_IseDzjzp3OCifHcB2FZ91O7UcDMMcKAH"><rect width="473" height="473"/></clipPath></defs><g clip-path="url(#_clipPath_IseDzjzp3OCifHcB2FZ91O7UcDMMcKAH)"><rect width="473" height="473" style="fill:rgb(243,124,42)"/><path d=" M 0 236.5 C 0 105.972 105.972 0 236.5 0 C 367.028 0 473 105.972 473 236.5 C 473 367.028 367.028 473 236.5 473 C 105.972 473 0 367.028 0 236.5 Z " fill="rgb(243,124,42)"/><path d=" M 224.244 83.927 C 239.902 68.269 381.986 327.022 359.703 349.305 C 337.42 371.588 82.803 229.087 96.202 215.688 C 109.609 202.289 213.399 230.238 227.948 215.688 C 242.505 201.135 208.582 99.592 224.244 83.927 Z " fill="rgb(241,209,72)"/><path d=" M 224.244 83.927 C 239.902 68.269 381.986 327.022 359.703 349.305 L 227.948 215.688 C 242.505 201.135 208.582 99.592 224.244 83.927 Z " fill="rgb(237,201,44)"/></g></svg>