<?xml version="1.0" standalone="no"?><!-- Generator: Gravit.io --><svg xmlns="http://www.w3.org/2000/svg" xmlns:xlink="http://www.w3.org/1999/xlink" style="isolation:isolate" viewBox="0 0 496 496" width="496" height="496"><defs><clipPath id="_clipPath_59bJwYIL1UsLf7izeupJ0pw1KQQYmUpK"><rect width="496" height="496"/></clipPath></defs><g clip-path="url(#_clipPath_59bJwYIL1UsLf7izeupJ0pw1KQQYmUpK)"><rect width="496" height="496" style="fill:rgb(224,79,95)"/><path d=" M 0 248.006 C 0 111.028 111.034 0.003 247.996 0.003 C 384.965 0.003 496 111.029 496 248.006 C 496 384.964 384.965 495.997 247.996 495.997 C 111.034 495.997 0 384.964 0 248.006 Z " fill="rgb(224,79,95)"/><path d=" M 373.997 155.096 C 339.209 120.307 282.803 120.307 248.015 155.096 L 247.986 155.096 C 213.196 120.307 156.791 120.307 122.003 155.096 C 87.213 189.885 92.23 241.91 122.003 281.077 C 153.534 322.555 211.104 390.986 247.986 390.986 L 248.015 390.986 C 284.898 390.986 342.466 322.555 373.997 281.077 C 403.771 241.911 408.786 189.886 373.997 155.096 Z " fill="rgb(255,255,255)"/></g></svg>