<svg height="512pt" viewBox="0 0 512 512" width="512pt" xmlns="http://www.w3.org/2000/svg"><path d="m512 256c0 141.386719-114.613281 256-256 256s-256-114.613281-256-256 114.613281-256 256-256 256 114.613281 256 256zm0 0" fill="#ffed97"/><path d="m511.925781 261.917969-108.8125-108.8125c-13.839843-15.019531-28.652343-22.25-46.691406-25.570313-.828125-.152344-1.648437-.28125-2.453125-.394531l-72.257812-72.230469c-6.359376-6.980468-15.519532-11.371094-25.710938-11.371094-19.203125 0-34.773438 15.570313-34.773438 34.777344v40.851563c-11.695312 2.636719-23.402343 6.753906-34.347656 12.691406-7.90625-4.011719-18.398437-6.699219-31.296875-4.324219-31.597656 5.8125-53.300781 23.582032-77.203125 74.296875-5.429687 11.515625-5.679687 18.011719-2.707031 21.125l58.222656 58.042969c1.296875 6.996094 2.90625 14.265625 4.855469 21.820312 4.46875 17.3125 10 32.496094 16.230469 45.796876-13.671875 11.085937-25.578125 29.90625-38.214844 61.566406-4.894531 12.261718-4.816406 18.828125-1.761719 21.683594l65.476563 68.804687c23.871093 7.359375 49.230469 11.328125 75.519531 11.328125 139.40625 0 252.777344-111.433594 255.925781-250.082031zm0 0" fill="#ffe047"/><path d="m204.355469 146.269531s-17.179688-24.546875-48.777344-18.734375c-31.59375 5.816406-53.296875 23.582032-77.199219 74.296875-23.78125 50.449219 51.722656 4.582031 62.988282 0 11.265624-4.582031 52.652343-26.234375 52.652343-26.234375zm0 0" fill="#ffaa20"/><path d="m307.644531 146.269531s17.179688-24.546875 48.777344-18.734375c31.59375 5.816406 53.296875 23.582032 77.199219 74.296875 23.78125 50.449219-51.722656 4.582031-62.988282 0-11.265624-4.582031-52.652343-26.234375-52.652343-26.234375zm0 0" fill="#ff8900"/><path d="m223.421875 354.621094s-14.542969-24.546875-41.292969-18.734375c-26.75 5.816406-45.125 23.582031-65.363281 74.296875-20.128906 50.449218 43.789063 4.582031 53.328125 0 9.539062-4.582032 44.578125-26.238282 44.578125-26.238282zm0 0" fill="#ffaa20"/><path d="m288.578125 354.621094s14.542969-24.546875 41.292969-18.734375c26.75 5.816406 45.125 23.582031 65.359375 74.296875 20.132812 50.449218-43.789063 4.582031-53.328125 0-9.535156-4.582032-44.574219-26.238282-44.574219-26.238282zm0 0" fill="#ff8900"/><path d="m290.777344 123.246094h-69.554688v-44.929688c0-19.207031 15.570313-34.777344 34.777344-34.777344s34.773438 15.570313 34.773438 34.777344v44.929688zm0 0" fill="#ffaa20"/><path d="m290.78125 78.320312v44.929688h-34.78125v-79.710938c9.601562 0 18.300781 3.890626 24.589844 10.191407 6.300781 6.289062 10.191406 14.988281 10.191406 24.589843zm0 0" fill="#ff8900"/><path d="m256.007812 115.328125c-.003906 0-.003906 0-.007812 0s-.007812 0-.007812 0c-63.957032.007813-155.582032 38.882813-117.242188 187.496094 26.644531 103.269531 91.066406 131.164062 117.242188 131.175781h.007812.007812c26.175782-.011719 90.597657-27.90625 117.242188-131.175781 38.34375-148.613281-53.285156-187.488281-117.242188-187.496094zm0 0" fill="#00dfc1"/><path d="m373.25 302.820312c-13.320312 51.640626-36.089844 84.429688-58.800781 104.308594-22.710938 19.890625-45.347657 26.871094-58.4375 26.871094h-.011719v-318.671875h.011719c11.039062 0 22.898437 1.160156 34.769531 3.84375 56.9375 12.839844 114.199219 60.679687 82.46875 183.648437zm0 0" fill="#00ad95"/><path d="m244.375 83.390625c0 3.703125-3 6.703125-6.703125 6.703125-3.699219 0-6.699219-3-6.699219-6.703125 0-3.699219 3-6.699219 6.699219-6.699219 3.703125 0 6.703125 3 6.703125 6.699219zm0 0" fill="#57555c"/><path d="m281.027344 83.390625c0 3.703125-3 6.703125-6.699219 6.703125-3.703125 0-6.703125-3-6.703125-6.703125 0-3.699219 3-6.699219 6.703125-6.699219 3.699219 0 6.699219 3 6.699219 6.699219zm0 0" fill="#2a2a2c"/><path d="m297.535156 216.0625 25.09375 43.464844h31.667969c3.496094-42.929688-10.101563-70.308594-30.117187-86.929688h-1.550782zm0 0" fill="#008878"/><path d="m230.90625 206.570312h50.183594l25.097656-43.464843-1.59375-2.757813c-15.859375-7.316406-33.238281-10.1875-48.585938-10.1875-.003906 0-.003906 0-.007812 0h-.003906c-15.351563 0-32.734375 2.871094-48.601563 10.195313l-1.582031 2.742187zm0 0" fill="#00ad95"/><path d="m306.191406 163.109375-25.101562 43.460937h-25.089844v-56.410156h.011719c15.339843 0 32.71875 2.871094 48.578125 10.191406zm0 0" fill="#008878"/><path d="m230.90625 331.472656-24.898438 43.128906c19.144532 18.570313 38.925782 24.945313 49.984376 24.949219h.007812.007812c11.058594-.003906 30.839844-6.378906 49.980469-24.949219l-24.898437-43.128906zm0 0" fill="#00ad95"/><path d="m305.988281 374.601562c-9.566406 9.277344-19.296875 15.519532-28.019531 19.4375-8.71875 3.910157-16.429688 5.5-21.957031 5.511719-.011719 0-.011719 0-.011719 0v-68.082031h25.089844zm0 0" fill="#008878"/><path d="m281.089844 225.554688h-50.183594l-25.09375 43.464843 25.09375 43.46875h50.183594l25.09375-43.46875zm0 0" fill="#00ad95"/><path d="m306.191406 269.019531-25.101562 43.46875h-25.089844v-86.929687h25.089844zm0 0" fill="#008878"/><path d="m351.785156 278.515625h-29.15625l-25.09375 43.464844 21.660156 37.515625c11.339844-15.214844 21.601563-35.617188 28.5625-62.605469 1.648438-6.386719 2.972657-12.5 4.027344-18.375zm0 0" fill="#008878"/><g fill="#00ad95"><path d="m189.363281 278.515625h-29.148437c1.054687 5.875 2.378906 11.988281 4.027344 18.375 6.960937 26.984375 17.21875 47.386719 28.558593 62.601563l21.660157-37.511719zm0 0"/><path d="m214.460938 216.0625-25.097657-43.464844h-1.542969c-20.015624 16.621094-33.613281 44-30.117187 86.929688h31.660156zm0 0"/></g></svg>