<svg height="464pt" viewBox="0 0 464.00009 464" width="464pt" xmlns="http://www.w3.org/2000/svg"><path d="m464 232c.113281 125.136719-99.167969 227.746094-224.238281 231.761719-2.5625.160156-5.121094.238281-7.761719.238281-128.128906 0-232-103.871094-232-232s103.871094-232 232-232 232 103.871094 232 232zm0 0" fill="#64c37d"/><path d="m458.480469 282.480469c-23.011719 103.25-112.992188 177.828125-218.71875 181.28125l-103.761719-103.761719 232-168zm0 0" fill="#4b925e"/><path d="m360.472656 187.496094-72.105468-10.304688c-5.238282-.75-9.765626-4.046875-12.09375-8.800781l-31-63.039063c-2.609376-5.308593-7.9375-8.746093-13.851563-8.9375-5.910156-.1875-11.445313 2.902344-14.390625 8.035157l-37.199219 64.847656c-2.421875 4.21875-6.636719 7.109375-11.449219 7.847656l-65.328124 10.054688c-5.945313.917969-10.875 5.09375-12.753907 10.808593-1.882812 5.714844-.402343 12 3.835938 16.273438l51.75 52.152344c3.816406 3.839844 5.429687 9.347656 4.289062 14.636718l-15.421875 71.578126c-1.277344 5.925781.90625 12.066406 5.636719 15.855468 4.734375 3.789063 11.199219 4.578125 16.707031 2.039063l68.199219-31.472657c4.253906-1.960937 9.152344-1.960937 13.40625 0l68.199219 31.472657c5.507812 2.539062 11.972656 1.75 16.707031-2.039063 4.730469-3.789062 6.914063-9.929687 5.636719-15.855468l-15.421875-71.578126c-1.140625-5.289062.472656-10.796874 4.289062-14.636718l51.488281-51.824219c4.261719-4.300781 5.734376-10.636719 3.804688-16.375-1.933594-5.738281-6.9375-9.894531-12.933594-10.738281zm0 0" fill="#d80027"/></svg>