<svg height="512pt" viewBox="0 0 512 512" width="512pt" xmlns="http://www.w3.org/2000/svg"><path d="m437.019531 74.980469c-48.351562-48.351563-112.640625-74.980469-181.019531-74.980469s-132.667969 26.628906-181.019531 74.980469c-48.351563 48.351562-74.980469 112.640625-74.980469 181.019531s26.628906 132.667969 74.980469 181.019531c48.351562 48.351563 112.640625 74.980469 181.019531 74.980469s132.667969-26.628906 181.019531-74.980469c48.351563-48.351562 74.980469-112.640625 74.980469-181.019531s-26.628906-132.667969-74.980469-181.019531zm0 0" fill="#ffe733"/><path d="m437.019531 437.019531c48.351563-48.351562 74.980469-112.640625 74.980469-181.019531s-26.628906-132.667969-74.980469-181.019531c-48.351562-48.351563-112.640625-74.980469-181.019531-74.980469v512c68.378906 0 132.667969-26.628906 181.019531-74.980469zm0 0" fill="#ffc247"/><path d="m445.984375 256c0 104.925781-85.058594 189.984375-189.984375 189.984375s-189.984375-85.058594-189.984375-189.984375 85.058594-189.984375 189.984375-189.984375 189.984375 85.058594 189.984375 189.984375zm0 0" fill="#fff"/><path d="m445.984375 256c0-104.925781-85.058594-189.984375-189.984375-189.984375v379.96875c104.925781 0 189.984375-85.058594 189.984375-189.984375zm0 0" fill="#f2f6fc"/><path d="m271.109375 256.351562c0-.101562.007813-.203124.007813-.304687 0-.015625 0-.027344 0-.046875v-93.390625c0-8.351563-6.765626-15.117187-15.117188-15.117187-8.347656 0-15.117188 6.765624-15.117188 15.117187v32.585937l-35.078124-66.175781c-3.910157-7.375-13.058594-10.1875-20.4375-6.277343-7.375 3.910156-10.1875 13.058593-6.277344 20.4375l63.550781 119.898437c2.714844 5.121094 7.953125 8.042969 13.371094 8.042969 2.386719 0 4.8125-.566406 7.066406-1.765625 4.839844-2.5625 7.695313-7.382813 8-12.476563.015625-.152344.023437-.332031.03125-.527344zm0 0" fill="#27488f"/><path d="m256.011719 271.121094c2.386719 0 4.8125-.566406 7.066406-1.765625 4.839844-2.5625 7.695313-7.382813 8-12.476563.015625-.15625.023437-.332031.03125-.53125 0-.097656.007813-.199218.007813-.300781 0-.019531 0-.03125 0-.046875v-93.390625c0-8.351563-6.765626-15.117187-15.117188-15.117187v123.628906zm0 0" fill="#1b3b6b"/><path d="m98.777344 271.117188h-32.761719c-8.351563 0-15.117187-6.769532-15.117187-15.117188 0-8.351562 6.765624-15.117188 15.117187-15.117188h32.761719c8.347656 0 15.117187 6.765626 15.117187 15.117188 0 8.347656-6.769531 15.117188-15.117187 15.117188zm0 0" fill="#27488f"/><path d="m256 113.894531c-8.351562 0-15.117188-6.769531-15.117188-15.117187v-32.761719c0-8.351563 6.765626-15.117187 15.117188-15.117187 8.347656 0 15.117188 6.765624 15.117188 15.117187v32.761719c0 8.347656-6.765626 15.117187-15.117188 15.117187zm0 0" fill="#27488f"/><path d="m271.117188 98.777344v-32.761719c0-8.351563-6.769532-15.117187-15.117188-15.117187v62.996093c8.351562 0 15.117188-6.769531 15.117188-15.117187zm0 0" fill="#1b3b6b"/><path d="m256 461.101562c-8.351562 0-15.117188-6.765624-15.117188-15.117187v-32.761719c0-8.347656 6.765626-15.117187 15.117188-15.117187 8.347656 0 15.117188 6.769531 15.117188 15.117187v32.761719c0 8.351563-6.765626 15.117187-15.117188 15.117187zm0 0" fill="#27488f"/><path d="m271.117188 445.984375v-32.761719c0-8.347656-6.769532-15.117187-15.117188-15.117187v62.996093c8.351562 0 15.117188-6.765624 15.117188-15.117187zm0 0" fill="#1b3b6b"/><path d="m445.984375 271.117188h-32.761719c-8.347656 0-15.117187-6.769532-15.117187-15.117188 0-8.351562 6.769531-15.117188 15.117187-15.117188h32.761719c8.351563 0 15.117187 6.765626 15.117187 15.117188 0 8.347656-6.765624 15.117188-15.117187 15.117188zm0 0" fill="#1b3b6b"/><path d="m256 461.101562c-113.09375 0-205.101562-92.007812-205.101562-205.101562s92.007812-205.101562 205.101562-205.101562 205.101562 92.007812 205.101562 205.101562-92.007812 205.101562-205.101562 205.101562zm0-379.96875c-96.421875 0-174.867188 78.445313-174.867188 174.867188s78.445313 174.867188 174.867188 174.867188 174.867188-78.445313 174.867188-174.867188-78.445313-174.867188-174.867188-174.867188zm0 0" fill="#fffd78"/><path d="m430.867188 256c0 96.421875-78.445313 174.867188-174.867188 174.867188v30.234374c113.09375 0 205.101562-92.007812 205.101562-205.101562s-92.007812-205.101562-205.101562-205.101562v30.234374c96.421875 0 174.867188 78.445313 174.867188 174.867188zm0 0" fill="#ffe733"/></svg>