<?xml version="1.0" standalone="no"?><!-- Generator: Gravit.io --><svg xmlns="http://www.w3.org/2000/svg" xmlns:xlink="http://www.w3.org/1999/xlink" style="isolation:isolate" viewBox="0 0 512 512" width="512" height="512"><defs><clipPath id="_clipPath_5cbKyB8tNbTTFyThUDgJ20Rr0OsmHn3L"><rect width="512" height="512"/></clipPath></defs><g clip-path="url(#_clipPath_5cbKyB8tNbTTFyThUDgJ20Rr0OsmHn3L)"><path d=" M 0 256 C 0 114.613 114.613 0 256 0 C 397.387 0 512 114.613 512 256 C 512 397.387 397.387 512 256 512 C 114.613 512 0 397.387 0 256 Z " fill="rgb(208,228,242)"/><path d=" M 472 256 L 422 256 C 422 164.32 347.68 90 256 90 L 256 40 C 375.293 40 472 136.707 472 256 Z " fill="rgb(252,147,2)"/><path d=" M 408.734 103.266 L 373.379 138.621 C 343.34 108.578 301.84 90 256 90 L 256 40 C 315.648 40 369.648 64.176 408.734 103.266 Z " fill="rgb(253,191,67)"/><path d=" M 256 472 L 256 422 C 347.68 422 422 347.68 422 256 L 472 256 C 472 375.293 375.293 472 256 472 Z " fill="rgb(227,0,72)"/><path d=" M 408.734 408.734 L 373.379 373.379 C 403.422 343.34 422 301.84 422 256 L 472 256 C 472 315.648 447.824 369.648 408.734 408.734 Z " fill="rgb(253,4,100)"/><path d=" M 40 256 L 90 256 C 90 347.68 164.32 422 256 422 L 256 472 C 136.707 472 40 375.293 40 256 Z " fill="rgb(10,181,158)"/><path d=" M 103.266 408.734 L 138.621 373.379 C 168.66 403.422 210.16 422 256 422 L 256 472 C 196.352 472 142.352 447.824 103.266 408.734 Z " fill="rgb(93,224,195)"/><path d=" M 256 40 L 256 90 C 164.32 90 90 164.32 90 256 L 40 256 C 40 136.707 136.707 40 256 40 Z " fill="rgb(54,145,187)"/><path d=" M 103.266 103.266 L 138.621 138.621 C 108.578 168.66 90 210.16 90 256 L 40 256 C 40 196.352 64.176 142.352 103.266 103.266 Z " fill="rgb(108,170,201)"/></g></svg>